<?xml version="1.0" standalone="no"?>
<!DOCTYPE svg PUBLIC "-//W3C//DTD SVG 20010904//EN"
 "http://www.w3.org/TR/2001/REC-SVG-20010904/DTD/svg10.dtd">
<svg version="1.0" xmlns="http://www.w3.org/2000/svg"
 width="500.000000pt" height="500.000000pt" viewBox="0 0 500.000000 500.000000"
 preserveAspectRatio="xMidYMid meet">

<g transform="translate(0.000000,500.000000) scale(0.100000,-0.100000)"
fill="#000000" stroke="none">
<path d="M1603 4352 c-10 -6 -12 -38 -9 -123 8 -241 8 -242 44 -300 19 -30 28
-48 21 -41 -20 18 -39 14 -39 -8 0 -25 35 -96 63 -130 12 -14 15 -19 7 -12
-17 14 -46 16 -55 2 -8 -13 11 -48 48 -87 26 -28 27 -31 8 -26 -26 7 -29 -21
-4 -56 9 -13 18 -36 19 -50 11 -100 41 -175 76 -187 22 -8 22 -8 -6 -13 -66
-13 -28 -54 64 -70 l55 -9 -62 -1 c-87 -1 -94 -26 -13 -49 30 -9 31 -10 9 -11
-14 -1 -33 -7 -43 -14 -17 -13 -17 -14 -1 -30 9 -9 26 -17 38 -18 l22 0 -22
-9 c-55 -22 -14 -48 81 -51 24 -1 31 -3 16 -5 -135 -21 -128 -54 15 -70 48 -6
55 -9 35 -15 -16 -4 -19 -7 -8 -8 18 -1 14 -31 -4 -31 -5 0 -6 4 -3 10 4 6 -5
7 -24 4 -16 -3 -37 -1 -47 4 -17 9 -15 11 11 17 51 11 52 14 5 12 -34 -1 -46
-6 -48 -20 -3 -12 6 -21 29 -29 29 -10 31 -12 14 -24 -26 -19 -12 -48 20 -41
24 4 25 3 9 -14 -17 -19 -12 -39 11 -39 8 0 17 -5 21 -12 4 -6 3 -8 -4 -4 -6
3 -13 2 -17 -3 -3 -5 2 -14 12 -20 15 -8 16 -14 6 -43 -15 -42 -16 -109 -5
-373 9 -212 13 -239 36 -248 8 -3 16 -33 20 -74 9 -92 31 -171 54 -197 10 -11
26 -34 36 -50 17 -27 19 -28 29 -11 6 11 11 164 12 402 1 211 5 386 7 389 3 2
24 -36 47 -86 51 -109 60 -187 61 -484 0 -170 -5 -231 -31 -415 -42 -292 -82
-409 -168 -488 -24 -22 -46 -33 -66 -33 -22 0 -26 3 -15 9 8 6 18 7 22 5 4 -3
8 0 8 5 0 14 -16 14 -41 1 -16 -9 -19 -7 -19 9 0 12 -9 21 -25 25 -13 3 -29
14 -34 25 -13 23 -3 65 13 53 6 -5 30 -14 53 -20 37 -11 45 -10 77 9 42 25 66
59 41 59 -12 0 -11 5 5 32 24 40 27 73 5 64 -8 -3 -15 -1 -15 4 0 4 -14 22
-31 39 -31 31 -31 32 -15 65 9 19 16 40 16 47 0 7 9 4 23 -9 13 -12 26 -22 30
-22 13 0 7 45 -12 85 -20 43 -116 155 -133 155 -7 0 -8 -28 -3 -80 7 -76 6
-83 -19 -120 -29 -43 -24 -48 29 -26 19 8 35 13 35 11 0 -15 -88 -100 -101
-97 -10 2 -34 -25 -69 -75 l-52 -78 6 -73 c3 -39 12 -87 19 -105 21 -49 67
-98 111 -118 l40 -18 -27 -12 c-35 -16 -35 -39 1 -39 15 0 35 -7 45 -14 16
-13 17 -15 2 -30 -15 -14 -15 -17 -1 -22 8 -3 20 -3 26 1 15 9 68 -32 66 -52
-1 -13 6 -18 22 -17 18 1 24 -6 29 -28 3 -15 12 -28 19 -28 8 0 14 -9 14 -20
0 -28 15 -25 40 10 20 29 21 29 40 10 11 -11 26 -16 39 -13 14 3 21 1 21 -8 1
-23 30 22 30 45 0 16 2 18 9 7 14 -21 33 -2 29 29 -4 27 -3 27 25 18 15 -6 51
-8 78 -6 48 5 49 4 33 -13 -15 -17 -15 -19 -1 -19 9 0 27 4 41 10 18 7 26 6
26 -1 0 -7 11 -9 30 -5 17 3 44 9 62 13 24 5 29 3 23 -7 -8 -14 7 -12 49 6 14
5 17 4 12 -4 -9 -15 13 -16 48 -2 16 6 27 6 31 0 4 -6 20 -4 40 5 31 12 36 12
44 -3 6 -11 20 -16 39 -14 23 2 32 -3 37 -18 9 -29 30 -19 30 13 -1 19 4 27
17 27 9 0 20 5 23 10 3 6 19 10 35 10 16 0 32 5 35 10 3 6 1 10 -5 10 -6 0 -9
4 -5 9 3 5 0 21 -6 34 -12 26 -73 44 -93 28 -18 -13 -60 -21 -84 -14 -31 8
-11 30 35 39 23 4 38 15 45 30 6 13 19 26 29 29 10 3 27 21 38 40 15 25 27 35
46 35 21 0 25 4 25 31 0 23 5 32 21 36 16 5 19 11 14 32 -4 14 -3 23 1 18 9
-9 44 21 44 38 0 7 7 19 16 26 25 20 14 99 -20 144 -16 20 -32 51 -37 69 -7
25 -16 35 -37 39 -16 3 -34 18 -46 38 -32 53 -87 109 -124 125 -48 19 -58 14
-33 -18 27 -33 27 -50 0 -46 -43 6 -99 179 -99 305 0 46 2 51 20 46 50 -13
219 156 281 281 37 77 79 201 79 238 0 16 -58 40 -167 68 -39 10 -43 14 -56
63 -21 73 -27 185 -10 191 17 7 16 48 -2 92 l-15 36 35 -31 c43 -38 55 -39 55
-6 0 29 -21 75 -56 121 -13 17 -20 34 -17 38 3 3 -2 8 -11 12 -9 3 -16 10 -16
15 0 5 12 1 27 -8 17 -11 24 -13 19 -5 -4 8 -22 22 -40 33 l-31 19 27 -2 c15
-1 24 -6 21 -11 -3 -5 0 -7 8 -5 8 3 13 10 12 16 -3 15 49 9 72 -8 11 -8 27
-24 35 -34 12 -16 5 -14 -37 8 -61 33 -87 27 -50 -13 61 -67 78 -115 19 -58
-54 53 -65 46 -12 -8 46 -46 70 -57 70 -29 0 23 -18 54 -54 93 l-31 35 30 -19
c17 -10 39 -24 50 -32 11 -7 23 -13 27 -13 14 0 8 34 -10 55 -31 37 -95 74
-76 44 5 -9 -30 4 -44 17 -16 12 72 -8 105 -24 65 -34 90 -28 58 14 -20 27
-19 37 4 24 38 -20 33 10 -8 51 -22 23 -33 38 -23 34 9 -4 27 -10 39 -12 19
-4 22 -2 18 17 -2 13 -6 24 -7 25 -2 1 -13 9 -26 17 -22 15 -21 15 22 11 37
-5 46 -3 46 10 0 9 -7 20 -15 25 -13 7 -12 10 10 20 37 17 32 40 -12 48 l-38
7 35 9 c70 19 81 64 12 52 l-37 -6 45 24 c47 25 63 48 33 48 -14 0 -12 5 12
24 22 18 27 27 19 36 -9 9 -25 6 -65 -11 -92 -38 -79 -47 15 -10 25 10 27 10
17 -3 -20 -24 -164 -92 -186 -89 -20 4 -20 4 -1 -12 16 -12 16 -15 5 -15 -32
0 -129 23 -129 31 0 15 16 18 56 9 44 -11 159 15 135 30 -11 6 -11 9 0 13 8 3
1 3 -16 1 -18 -3 -38 1 -50 10 l-20 15 20 1 c11 0 34 9 50 21 43 29 166 91
171 86 3 -2 -14 -21 -36 -41 -22 -20 -36 -36 -30 -36 16 0 90 71 90 86 0 21
-19 17 -82 -16 -32 -17 -61 -29 -65 -29 -13 3 -43 -12 -39 -20 2 -3 -8 -7 -22
-8 l-27 -1 30 21 c69 51 74 64 8 21 -58 -37 -78 -45 -102 -41 -17 4 -36 1 -47
-8 -17 -13 -14 -14 28 -8 26 3 55 2 65 -2 17 -7 17 -8 -2 -15 -11 -5 -40 -9
-65 -9 -45 -1 -45 -1 -67 49 -12 28 -28 50 -35 50 -7 0 14 26 47 58 33 31 65
66 72 77 11 18 12 18 12 -11 1 -33 -25 -67 -73 -99 -14 -10 -24 -20 -22 -22 7
-7 67 35 88 61 21 26 32 17 19 -16 -5 -14 -30 -37 -56 -52 -62 -37 -51 -44 15
-11 66 34 101 30 45 -5 -28 -18 -35 -26 -23 -28 21 -4 46 12 168 104 103 76
160 111 160 94 0 -12 -71 -85 -125 -128 -22 -18 -34 -32 -28 -32 17 0 127 93
152 129 24 33 27 61 8 61 -8 0 -43 -19 -78 -41 l-64 -42 52 56 c86 91 131 176
107 200 -12 12 -48 -15 -136 -101 -49 -47 -88 -82 -88 -77 0 5 -18 -9 -40 -30
-35 -35 -53 -75 -33 -75 4 0 67 59 140 132 73 73 135 129 138 126 16 -16 -53
-119 -127 -190 -44 -43 -77 -78 -72 -78 4 0 19 10 33 23 15 13 20 15 12 4 -8
-10 -28 -28 -45 -40 -22 -15 -27 -16 -17 -4 17 21 8 22 -25 1 -13 -9 -27 -14
-31 -10 -3 3 -13 0 -21 -7 -13 -10 -14 -9 -6 8 10 20 9 78 -2 125 -4 20 2 33
32 63 21 20 34 40 31 44 -4 3 -7 1 -7 -5 0 -14 -10 -15 -29 -3 -11 7 -6 22 24
75 52 93 38 83 -19 -14 -26 -44 -50 -80 -52 -80 -15 0 5 42 68 146 39 66 86
154 104 196 43 101 63 138 73 138 30 0 -71 -260 -146 -378 -43 -66 -53 -97
-22 -62 15 17 20 19 16 8 -13 -36 3 -16 45 54 23 39 42 81 43 92 1 32 75 203
96 222 18 17 19 16 13 -17 -4 -19 -15 -57 -25 -85 -24 -63 -157 -292 -204
-349 -19 -24 -35 -47 -35 -51 0 -17 58 49 151 172 104 137 149 187 149 164 0
-19 -67 -138 -101 -179 -35 -43 -29 -55 7 -15 61 65 119 179 108 209 -10 25
-25 17 -77 -37 -41 -43 -46 -47 -28 -18 42 65 70 135 73 180 3 40 0 45 -18 48
-15 2 -20 8 -17 21 2 10 -3 26 -12 35 -16 16 -19 16 -38 -1 -11 -10 -35 -52
-54 -93 -54 -118 -91 -187 -128 -243 -19 -28 -35 -61 -35 -72 -1 -18 -2 -18
-14 4 -13 23 -15 21 -76 -84 -35 -59 -92 -148 -128 -197 -35 -49 -61 -95 -58
-101 3 -7 21 -33 40 -60 61 -84 71 -209 26 -316 -25 -56 -75 -107 -117 -117
-28 -7 -133 23 -133 38 0 4 3 8 8 8 14 0 74 41 68 47 -3 3 -14 -1 -23 -9 -22
-19 -63 -32 -63 -20 0 13 29 38 85 75 55 35 61 51 50 124 -11 72 -68 125 -150
137 -33 5 -30 2 18 -13 65 -21 98 -46 91 -66 -3 -7 -1 -16 5 -20 6 -3 11 -11
11 -16 0 -16 -29 17 -40 45 -5 14 -15 26 -22 26 -9 0 -9 -3 0 -12 17 -17 15
-48 -3 -48 -10 0 -15 10 -15 29 0 17 -5 33 -11 37 -8 5 -10 -1 -6 -18 5 -19 2
-28 -9 -32 -23 -9 -24 -8 -25 22 l0 27 -10 -24 c-10 -25 1 -40 27 -41 6 0 31
-10 56 -23 46 -23 53 -47 15 -47 -15 0 -28 -12 -42 -38 -14 -25 -26 -36 -39
-34 -11 2 -15 -1 -11 -7 10 -18 32 -13 48 12 12 17 18 20 28 10 10 -10 4 -20
-31 -53 -42 -38 -82 -51 -95 -30 -3 6 -11 10 -17 10 -27 0 18 -30 46 -31 25 0
27 -2 11 -8 -19 -8 -19 -8 2 -15 18 -6 21 -11 14 -24 -5 -9 -5 -26 0 -37 13
-34 11 -35 -60 -35 -50 0 -74 4 -85 16 -19 19 -19 10 -2 70 19 67 30 125 27
150 -1 11 5 27 13 34 9 7 16 21 16 31 0 10 13 25 30 34 38 20 38 26 0 15 -42
-12 -50 -19 -43 -35 8 -22 -5 -18 -17 6 -13 23 3 51 24 43 6 -2 22 9 34 26
l22 30 -37 -25 c-21 -14 -43 -29 -49 -34 -7 -6 -15 -7 -20 -3 -4 4 -4 -1 -1
-11 4 -11 3 -16 -3 -12 -6 3 -10 9 -10 13 0 15 63 77 88 89 15 6 20 12 13 12
-8 1 -31 -9 -50 -22 -20 -12 -45 -27 -56 -33 -11 -6 -22 -19 -25 -30 -3 -10
-13 -31 -24 -47 -14 -20 -17 -38 -13 -68 4 -33 2 -39 -9 -35 -25 9 2 -29 43
-63 42 -35 36 -42 -8 -10 -46 32 -89 115 -89 170 0 55 20 116 51 159 26 35 96
86 106 76 3 -3 1 -6 -5 -6 -20 0 -92 -71 -112 -109 -9 -20 -21 -55 -24 -77 -8
-47 9 -128 25 -118 6 4 6 11 -2 20 -15 18 -15 112 0 127 6 6 11 19 11 29 0 10
7 21 15 24 8 4 15 11 15 16 0 15 49 58 66 58 7 0 14 5 14 10 0 6 11 10 24 10
14 0 27 4 30 9 8 12 116 5 129 -8 6 -6 19 -11 28 -11 9 0 19 -7 23 -15 3 -8
12 -15 21 -15 8 0 15 -9 15 -19 0 -10 7 -21 15 -25 8 -3 15 -14 15 -25 0 -11
5 -23 11 -26 6 -4 9 -31 8 -61 -2 -29 0 -57 4 -61 4 -3 7 23 7 58 -1 142 -91
231 -235 232 -56 1 -57 1 -25 10 86 22 197 -34 243 -124 33 -65 38 -153 13
-210 l-15 -34 4 30 5 30 -12 -26 c-7 -14 -23 -38 -35 -53 -13 -16 -21 -32 -18
-36 3 -5 -11 -19 -32 -31 -20 -13 -31 -25 -24 -27 34 -11 130 102 151 178 56
202 -158 386 -350 299 -176 -79 -226 -295 -96 -418 33 -32 35 -36 20 -52 -15
-17 -17 -17 -39 9 -44 52 -86 128 -102 181 -14 50 -14 55 1 66 23 17 21 56 -4
62 -25 7 -25 30 0 68 11 17 20 35 20 41 0 6 -47 83 -103 170 -57 87 -116 183
-132 211 -23 42 -30 50 -39 38 -9 -11 -33 22 -118 158 -86 137 -167 248 -181
247 -1 0 -8 -4 -14 -8z m85 -119 c143 -204 233 -343 228 -352 -4 -5 -2 -22 4
-38 12 -34 14 -36 -90 102 -158 208 -212 293 -225 353 -11 54 10 37 83 -65z
m-14 -131 c36 -51 63 -98 60 -104 -4 -6 -2 -8 4 -4 6 3 35 -26 67 -69 31 -41
61 -77 66 -81 5 -3 9 -11 9 -17 0 -7 -9 -1 -20 13 -11 14 -20 20 -20 14 0 -14
35 -46 42 -39 10 11 67 -65 61 -81 -8 -21 -35 5 -127 121 -65 82 -99 128 -180
238 -15 20 -30 54 -33 75 -3 20 -4 35 -1 32 3 -3 35 -47 72 -98z m57 -194 c74
-93 86 -116 42 -77 l-28 24 24 -27 c13 -15 27 -25 31 -23 4 2 17 -7 30 -20 13
-13 28 -22 34 -18 6 3 8 2 3 -2 -4 -5 9 -26 30 -47 35 -36 51 -68 33 -68 -18
0 -239 227 -265 273 -33 57 -55 118 -48 130 3 5 14 -6 25 -25 12 -18 52 -72
89 -120z m1414 67 c-20 -37 -39 -65 -41 -62 -5 5 69 136 75 131 2 -1 -13 -33
-34 -69z m-169 -140 c-9 -56 -70 -155 -126 -202 -31 -27 -42 -32 -37 -19 8 19
7 19 -13 1 -11 -10 -18 -20 -15 -23 3 -3 0 -11 -5 -17 -7 -8 -1 -29 20 -66 16
-30 30 -61 30 -69 0 -8 -10 5 -21 30 -11 25 -29 55 -41 67 -12 13 -17 27 -12
35 4 7 44 65 88 128 45 64 92 137 106 163 27 52 36 43 26 -28z m-1022 39 c3
-8 2 -12 -4 -9 -6 3 -10 10 -10 16 0 14 7 11 14 -7z m-159 -144 c44 -42 91
-83 105 -92 14 -9 22 -19 18 -23 -4 -4 -26 7 -50 25 l-43 32 45 -41 c60 -55
45 -62 -21 -9 -84 66 -127 109 -165 165 -74 111 -61 105 111 -57z m200 79 c15
-23 22 -38 16 -35 -18 11 -12 -7 10 -34 18 -23 19 -23 9 -2 -23 47 0 18 58
-71 33 -51 63 -103 67 -116 8 -25 -12 -84 -26 -75 -13 8 -11 -30 3 -44 8 -8 8
-15 0 -25 -7 -8 -8 -18 -4 -22 4 -5 -6 -1 -22 9 -16 10 -25 13 -22 7 11 -17 0
-13 -15 6 -10 12 -11 15 -1 9 10 -6 11 -1 7 21 -3 15 -2 22 1 16 8 -18 25 -16
18 2 -4 8 -1 15 5 15 9 0 9 5 1 21 -15 26 -7 34 19 19 32 -17 27 6 -11 50 -80
93 -110 131 -112 143 -1 7 -9 23 -19 37 -9 14 -13 26 -8 28 5 2 0 20 -12 40
-19 34 -19 36 -2 22 17 -14 18 -13 12 3 -10 27 -2 20 28 -24z m1036 23 c-5
-10 -17 -24 -25 -32 -13 -10 -16 -10 -16 3 0 17 26 47 41 47 6 0 6 -7 0 -18z
m-1340 -120 c106 -80 203 -163 205 -176 2 -14 -2 -13 -29 1 -62 31 -170 122
-209 176 -24 34 -13 34 33 -1z m360 -119 c38 -41 48 -63 30 -63 -15 0 -92 90
-106 123 -28 69 -26 81 5 32 18 -27 50 -69 71 -92z m1039 43 c0 -2 -8 -10 -17
-17 -16 -13 -17 -12 -4 4 13 16 21 21 21 13z m-1074 -75 c5 -11 21 -28 34 -39
16 -13 20 -21 11 -26 -7 -4 -10 -2 -9 5 2 6 -3 14 -11 17 -9 3 -11 0 -6 -9 4
-8 -15 8 -44 36 -59 57 -70 89 -18 57 17 -11 37 -30 43 -41z m-252 8 c65 -40
88 -61 44 -38 -18 9 -20 9 -12 -1 6 -6 23 -13 36 -14 14 -2 35 -10 47 -18 19
-13 20 -16 6 -22 -11 -4 -14 -2 -9 6 5 8 2 9 -9 5 -18 -7 -168 88 -175 111 -6
18 1 16 72 -29z m1116 6 c0 -7 -6 -16 -12 -18 -8 -4 -4 -8 10 -12 23 -8 31
-45 10 -45 -9 0 -8 -3 2 -10 18 -11 24 -92 7 -102 -8 -5 -8 -10 0 -20 15 -17
11 -92 -5 -111 -9 -10 -10 -17 -2 -22 15 -10 12 -35 -5 -35 -11 0 -14 -7 -9
-25 4 -18 1 -27 -10 -31 -9 -3 -16 -17 -16 -30 0 -15 -6 -24 -15 -24 -8 0 -15
-7 -15 -16 0 -9 -9 -18 -20 -21 -11 -3 -20 -11 -20 -18 0 -21 -49 -28 -76 -10
-30 20 -30 23 0 18 13 -3 26 0 30 5 4 6 -3 8 -16 5 -19 -4 -18 -2 7 15 35 23
56 46 79 87 15 26 16 27 10 5 -3 -14 -20 -43 -37 -65 l-31 -40 29 25 c15 14
41 54 57 90 29 61 30 70 26 170 -3 91 -8 113 -33 163 l-28 57 23 25 c18 19 27
22 41 14 11 -5 19 -16 19 -24z m-911 -50 c18 -19 39 -32 45 -29 6 3 0 -3 -13
-14 -19 -16 -29 -17 -42 -9 -28 17 -53 87 -31 87 4 0 22 -16 41 -35z m-129
-65 c41 -23 64 -39 50 -35 -24 6 -24 5 -6 -9 27 -22 13 -20 -37 5 -63 32 -127
81 -127 96 0 11 4 11 23 -1 12 -8 56 -33 97 -56z m1205 14 c27 -11 16 -24 -19
-24 -56 0 -96 11 -96 28 0 12 9 13 50 8 28 -4 57 -9 65 -12z m174 -18 c-2 -2
-29 -15 -59 -29 -39 -18 -48 -25 -30 -24 97 3 118 -16 30 -28 -33 -5 -41 -4
-30 4 12 9 11 11 -10 12 -14 1 -29 1 -33 0 -17 -3 0 24 20 34 12 6 28 17 37
24 9 7 27 14 41 14 15 0 22 4 18 11 -3 6 0 6 7 -1 8 -7 12 -15 9 -17z m-1235
-28 c21 -11 24 -16 14 -20 -19 -8 -78 30 -78 50 0 14 2 14 18 0 9 -9 30 -22
46 -30z m56 33 c0 -11 -39 -25 -47 -18 -3 3 -2 10 2 16 8 13 45 15 45 2z
m-181 -72 c-6 -3 4 -12 21 -19 17 -7 29 -15 27 -17 -9 -8 -116 51 -110 60 4 6
1 7 -6 3 -7 -5 -21 0 -32 10 -36 33 -19 34 46 2 35 -18 60 -35 54 -39z m234
-14 c21 7 21 7 3 -8 -19 -14 -19 -16 7 -76 14 -33 24 -61 22 -61 -3 0 -18 27
-35 60 l-30 59 -35 -14 c-50 -21 -57 -18 -12 6 39 21 40 24 22 74 -4 11 2 5
14 -13 17 -27 26 -32 44 -27z m78 22 c-1 -12 -15 -9 -19 4 -3 6 1 10 8 8 6 -3
11 -8 11 -12z m-334 -34 c7 -3 10 -10 7 -15 -4 -6 2 -8 17 -3 19 5 21 4 9 -5
-12 -9 -9 -10 15 -6 22 5 26 4 15 -4 -12 -8 -13 -10 -1 -10 8 0 12 -2 9 -5
-11 -12 -109 30 -135 57 l-28 30 40 -17 c22 -9 46 -19 52 -22z m161 -14 c-21
-14 -36 -11 -58 11 -32 32 -14 42 31 18 29 -15 37 -23 27 -29z m365 33 c-10
-10 -20 -17 -22 -16 -6 5 20 34 30 34 5 0 1 -8 -8 -18z m640 -4 c51 -26 33
-35 -28 -14 -57 19 -58 5 -1 -28 47 -27 61 -32 52 -17 -8 12 145 -45 158 -60
8 -9 7 -11 -5 -6 -9 3 -37 9 -63 12 -25 4 -49 12 -52 17 -4 6 3 8 17 4 30 -9
4 8 -28 18 -18 6 -22 4 -17 -8 5 -13 -1 -13 -47 3 -42 14 -54 23 -60 45 -16
58 7 69 74 34z m54 6 c-3 -3 -12 -4 -19 -1 -8 3 -5 6 6 6 11 1 17 -2 13 -5z
m41 -21 c-10 -2 -26 -2 -35 0 -10 3 -2 5 17 5 19 0 27 -2 18 -5z m-946 -35 c0
-18 0 -41 0 -51 -1 -10 2 -16 7 -13 4 3 13 -6 19 -19 10 -22 9 -25 -6 -25 -26
0 -77 107 -61 126 20 25 39 16 41 -18z m1017 11 c65 -23 19 -38 -71 -23 -25 5
-35 11 -31 20 6 17 58 18 102 3z m-821 -16 c-2 -13 4 -18 24 -18 40 -1 44 -12
8 -20 -22 -5 -30 -11 -26 -21 3 -8 -1 -17 -9 -20 -16 -7 -20 -39 -6 -48 5 -4
7 3 4 13 -4 15 0 20 16 18 20 -1 31 -17 12 -17 -4 0 -6 -11 -3 -25 5 -28 3
-29 -32 -14 -27 13 -43 42 -26 47 8 3 7 8 -1 18 -7 8 -9 17 -5 21 3 3 6 1 6
-5 0 -6 7 -9 15 -6 8 4 15 15 15 26 0 10 -5 16 -10 13 -16 -10 -24 23 -10 40
17 20 32 19 28 -2z m-388 -24 c0 -5 -4 -9 -10 -9 -5 0 -10 7 -10 16 0 8 5 12
10 9 6 -3 10 -10 10 -16z m-130 -3 c28 -8 39 -15 30 -19 -8 -4 -1 -6 17 -4 18
2 30 0 27 -5 -3 -4 -21 -8 -40 -8 -19 0 -33 4 -30 9 4 5 -2 7 -12 4 -10 -2
-29 5 -43 16 -29 24 -14 27 51 7z m240 -6 c7 -14 7 -20 0 -20 -5 0 -10 7 -10
15 0 9 -9 15 -22 15 -19 0 -20 -2 -8 -11 12 -9 12 -10 -3 -5 -10 3 -24 6 -30
6 -7 0 -6 4 3 10 25 16 59 11 70 -10z m925 -29 c36 -25 25 -27 -31 -5 -24 9
-44 24 -47 35 -5 17 -3 17 22 4 14 -8 40 -23 56 -34z m-340 3 c-1 -34 -20 -58
-38 -47 -5 3 1 12 13 20 12 9 19 21 16 30 -5 13 0 33 8 33 1 0 2 -16 1 -36z
m-656 0 c17 -4 28 -10 26 -15 -3 -4 10 -5 30 -2 25 4 35 2 35 -7 0 -10 -15
-11 -63 -7 -69 6 -97 15 -97 28 0 11 25 12 69 3z m613 -6 c-9 -9 -15 -9 -24 0
-9 9 -7 12 12 12 19 0 21 -3 12 -12z m433 2 c3 -5 2 -10 -4 -10 -5 0 -13 5
-16 10 -3 6 -2 10 4 10 5 0 13 -4 16 -10z m-82 -35 c36 -25 48 -45 27 -45 -12
0 -70 28 -70 34 0 3 -3 11 -6 20 -9 23 6 20 49 -9z m156 -2 c51 -30 36 -46
-18 -19 -38 20 -48 20 -48 1 0 -9 6 -14 14 -11 7 3 12 2 10 -2 -1 -4 14 -22
33 -40 l35 -33 -57 27 c-31 15 -56 31 -55 34 1 4 -7 16 -18 26 -12 11 -15 15
-8 11 6 -5 20 -4 30 2 14 8 15 11 3 11 -10 1 -9 4 5 10 11 5 22 9 24 9 2 1 25
-11 50 -26z m-1249 -4 c-18 -6 -12 -7 22 -3 42 5 47 3 41 -12 -5 -13 -14 -15
-49 -10 -24 3 -58 12 -76 20 l-33 14 60 0 c47 0 55 -2 35 -9z m806 -37 l-29
-27 23 32 c13 18 26 30 29 28 3 -3 -8 -18 -23 -33z m-611 17 c-56 -11 -105
-11 -105 1 0 6 30 10 73 9 65 -1 68 -2 32 -10z m108 -6 c-12 -2 -27 -12 -35
-20 -11 -14 -11 -16 2 -11 43 16 60 18 60 10 0 -6 -11 -13 -25 -16 -34 -9 -32
-24 3 -19 25 3 26 3 5 -6 -28 -13 -30 -25 -3 -16 11 4 20 2 20 -4 0 -6 -6 -11
-14 -11 -18 0 -76 -66 -88 -101 -10 -28 -55 -66 -65 -55 -10 10 16 107 43 166
34 73 51 90 88 89 22 -1 25 -3 9 -6z m813 -63 c19 -23 10 -23 -40 2 -42 20
-57 43 -39 61 6 7 53 -31 79 -63z m-893 53 c-7 -2 -21 -2 -30 0 -10 3 -4 5 12
5 17 0 24 -2 18 -5z m-80 -10 c-7 -2 -19 -2 -25 0 -7 3 -2 5 12 5 14 0 19 -2
13 -5z m-78 -22 c-3 -5 3 -12 12 -15 10 -3 -18 -3 -62 -1 -107 7 -123 25 -21
25 45 0 75 -4 71 -9z m129 3 c28 -11 6 -24 -39 -24 -42 0 -62 10 -48 24 8 8
66 8 87 0z m198 -97 l-26 -27 -12 22 c-15 28 -10 35 13 17 17 -13 17 -13 0 7
-10 12 -17 34 -15 52 l2 31 32 -37 32 -37 -26 -28z m765 97 c-3 -3 -12 -4 -19
-1 -8 3 -5 6 6 6 11 1 17 -2 13 -5z m-97 -49 c29 -31 20 -44 -15 -21 -14 9
-30 14 -35 11 -6 -3 -10 -1 -10 4 0 6 6 11 13 11 8 0 7 4 -3 10 -12 8 -11 10
6 10 11 0 31 -11 44 -25z m169 -11 c35 -33 24 -35 -34 -8 -27 13 -44 24 -37
24 7 0 10 5 6 11 -12 20 39 -1 65 -27z m-1049 7 c0 -12 -29 -23 -42 -15 -6 4
-5 10 3 15 18 11 39 11 39 0z m303 2 c-19 -7 -16 -43 8 -88 24 -45 67 -95 83
-95 5 0 -4 15 -22 33 -18 18 -32 35 -32 37 0 3 36 5 80 5 74 0 80 -2 80 -21 0
-11 -6 -27 -12 -35 -9 -9 -7 -9 5 2 10 8 19 29 20 46 1 21 6 29 16 25 11 -4
11 -1 2 16 -13 25 -14 32 -3 32 4 0 16 -23 26 -51 20 -54 20 -53 -25 -79 -31
-18 -127 -23 -176 -10 -88 24 -153 68 -153 103 0 15 84 87 100 86 10 0 11 -2
3 -6z m-403 -12 c38 -7 32 -8 -42 -8 -49 -1 -88 3 -88 8 0 11 68 11 130 0z
m603 -31 c3 -11 1 -20 -4 -20 -5 0 -9 9 -9 20 0 11 2 20 4 20 2 0 6 -9 9 -20z
m336 -6 c40 -33 40 -51 1 -27 -16 9 -30 23 -30 29 0 7 -6 15 -12 17 -9 4 -9 6
-1 6 6 1 25 -11 42 -25z m-502 -399 c138 -311 213 -488 209 -492 -2 -2 -13 20
-26 49 -73 171 -248 565 -309 695 -39 83 -71 155 -70 160 1 12 110 -218 196
-412z m450 393 c-2 -7 10 -29 26 -48 26 -30 28 -35 13 -38 -20 -4 -58 26 -50
39 3 5 -2 12 -10 15 -20 8 -21 24 -1 24 8 0 15 5 15 10 0 6 3 10 6 10 3 0 4
-6 1 -12z m-844 -5 c-7 -2 -19 -2 -25 0 -7 3 -2 5 12 5 14 0 19 -2 13 -5z
m197 -24 c0 -5 16 -44 36 -86 25 -53 39 -102 45 -152 4 -40 13 -89 20 -108 6
-18 8 -40 6 -47 -3 -8 5 -47 18 -87 25 -79 24 -96 -3 -63 -9 12 -25 24 -34 27
-10 4 -18 13 -18 21 0 7 -7 16 -15 20 -8 3 -15 12 -15 20 0 7 -7 17 -16 20
-10 4 -14 14 -11 26 3 10 -1 24 -9 31 -16 13 -19 39 -4 39 7 0 7 6 0 19 -12
24 -13 31 -1 31 5 0 14 -12 19 -27 6 -16 11 -21 11 -13 1 8 -6 28 -14 44 -25
47 -19 66 10 33 29 -33 34 -21 6 14 -15 20 -19 39 -17 97 1 59 -1 70 -10 57
-17 -23 -28 -1 -13 27 11 21 11 22 -5 9 -25 -21 -31 -6 -11 26 l18 28 -21 -19
c-12 -11 -22 -17 -22 -13 0 3 -3 12 -6 21 -3 9 -1 16 6 16 6 0 8 -6 4 -12 -4
-8 -3 -10 2 -5 5 5 10 13 10 18 1 5 2 12 3 15 2 9 31 -17 31 -27z m521 -140
c18 -23 60 -62 94 -85 94 -68 105 -78 40 -38 -33 20 -86 61 -117 92 -32 31
-58 52 -58 46 0 -5 18 -27 40 -49 33 -32 37 -41 29 -58 -6 -10 -14 -49 -18
-86 l-7 -66 -23 95 c-12 52 -24 115 -26 140 -1 25 -14 70 -29 100 -38 81 -32
96 8 18 18 -37 49 -86 67 -109z m-781 150 c-17 -6 -7 -7 32 -3 31 3 58 2 61
-3 3 -4 -35 -10 -84 -11 -55 -2 -89 0 -89 7 0 11 29 18 75 19 29 0 30 0 5 -9z
m859 -104 c82 -86 149 -191 132 -208 -8 -8 -11 -7 -11 5 0 9 -33 40 -72 69
-86 61 -127 99 -128 117 0 6 -4 12 -9 12 -9 0 -61 96 -61 113 0 20 87 -43 149
-108z m30 45 c39 -49 32 -74 -10 -34 -15 15 -26 31 -23 36 3 5 -4 12 -16 15
-16 4 -18 8 -8 14 20 13 22 12 57 -31z m123 -2 c38 -31 67 -75 83 -127 6 -19
4 -21 -8 -15 -25 15 -123 128 -104 121 20 -7 16 4 -11 36 -24 27 -4 20 40 -15z
m-922 -10 c-1 -31 -44 -97 -56 -85 -5 5 45 117 53 117 1 0 3 -15 3 -32z m91
-7 c-18 -32 -12 -38 11 -11 l21 25 -8 -25 c-9 -31 -53 -78 -110 -119 l-43 -31
2 41 c2 35 9 47 42 75 21 18 50 44 64 56 28 25 37 20 21 -11z m204 -33 c5 4 5
-1 2 -11 -4 -10 -7 -24 -7 -30 0 -7 -9 5 -20 26 -25 46 -25 59 -1 30 10 -12
22 -19 26 -15z m338 -53 c4 -39 8 -95 9 -125 0 -30 4 -47 7 -38 3 10 7 -12 8
-48 1 -36 0 -64 -2 -62 -3 2 -16 47 -29 99 -46 174 -72 232 -84 187 -2 -9 0
-8 8 2 9 12 10 9 6 -15 -5 -23 -4 -27 5 -15 8 12 9 9 4 -13 -4 -21 -3 -27 6
-21 9 5 10 2 6 -10 -4 -10 -4 -29 -1 -43 5 -19 9 -22 16 -11 7 9 8 6 4 -12 -8
-35 4 -76 16 -58 6 8 7 1 3 -22 -5 -26 -4 -31 4 -20 9 13 11 12 12 -5 1 -11 3
-36 5 -56 3 -31 -1 -38 -23 -48 -14 -6 -27 -10 -28 -9 -1 2 -8 46 -14 98 -22
174 -33 227 -42 205 -4 -11 -7 -33 -7 -50 0 -30 0 -30 9 -5 6 18 7 8 4 -35 -3
-42 -1 -54 5 -40 7 14 9 0 5 -45 -3 -47 -2 -58 5 -40 7 18 8 9 4 -35 -3 -43
-2 -56 5 -45 9 13 11 13 11 -2 0 -24 -30 -38 -80 -38 -38 0 -41 2 -35 21 5 16
4 19 -5 14 -9 -5 -10 -2 -5 14 4 12 2 21 -4 21 -6 0 -11 9 -11 20 0 11 -4 20
-10 20 -10 0 -32 45 -86 177 -23 58 -32 92 -28 112 l6 29 40 -14 c22 -8 65
-14 94 -14 46 0 53 -2 47 -17 -3 -12 0 -10 11 5 10 12 20 20 24 18 4 -2 21 7
37 20 47 38 59 29 68 -51z m-495 -10 c-3 -51 -9 -70 -28 -90 -13 -14 -30 -23
-38 -20 -7 2 -10 0 -7 -5 8 -12 -55 -1 -73 13 -9 7 -4 16 23 34 20 13 33 28
30 33 -3 6 1 7 9 4 10 -4 23 10 43 45 15 28 32 51 37 51 4 0 6 -29 4 -65z
m737 55 c4 -6 11 -8 16 -4 5 3 8 0 7 -7 -2 -7 2 -13 9 -14 6 0 15 -4 20 -9 5
-5 3 -6 -4 -2 -17 9 -16 6 2 -31 19 -38 30 -93 19 -93 -5 0 -19 19 -32 43 -13
24 -37 59 -53 77 -24 25 -27 35 -17 41 17 11 26 11 33 -1z m-953 -7 c-6 -2
-10 -9 -6 -14 3 -5 -4 -9 -15 -9 -26 0 -28 17 -3 23 24 6 40 7 24 0z m235 -95
c-2 -13 -4 -3 -4 22 0 25 2 35 4 23 2 -13 2 -33 0 -45z m110 -40 c-3 -7 -5 -2
-5 12 0 14 2 19 5 13 2 -7 2 -19 0 -25z m630 -99 c14 -33 13 -30 13 -65 0 -14
3 -23 8 -21 4 3 7 -8 8 -24 1 -30 -3 -33 -31 -23 -13 6 -14 9 -3 16 10 7 8 8
-5 4 -10 -3 -34 1 -53 9 -60 25 -37 6 30 -24 78 -35 92 -51 33 -40 -23 5 -60
11 -82 15 -47 8 -65 20 -65 44 0 20 48 65 80 75 11 3 20 11 20 16 0 18 -35 8
-59 -16 -12 -14 -27 -23 -31 -20 -5 3 -13 -2 -18 -11 -8 -14 -10 -12 -16 11
-8 33 1 81 21 114 9 14 10 20 3 16 -7 -4 -18 -21 -26 -39 -16 -39 -18 -12 -3
49 l11 43 76 -49 c50 -33 81 -61 89 -80z m-719 -92 c12 -21 17 -35 11 -31 -27
16 -49 90 -47 159 l1 70 6 -80 c5 -57 13 -92 29 -118z m-57 156 c-4 -16 -4
-41 0 -58 15 -66 12 -70 -23 -42 -18 13 -32 28 -31 33 1 5 -4 15 -10 22 -8 11
-7 16 4 23 9 4 27 17 40 28 13 11 25 20 26 21 1 0 -2 -12 -6 -27z m156 -15
c-3 -7 -5 -2 -5 12 0 14 2 19 5 13 2 -7 2 -19 0 -25z m-287 -22 c0 -6 9 -17
21 -24 11 -7 18 -19 15 -27 -3 -10 0 -12 12 -8 13 5 15 4 7 -8 -9 -12 -10 -22
-6 -53 0 -5 8 -3 16 4 12 10 15 10 15 -2 0 -8 -6 -20 -12 -27 -9 -10 -9 -12
-1 -7 14 8 27 -64 20 -110 -4 -27 -5 -28 -12 -7 -6 18 -11 21 -25 13 -13 -7
-21 -6 -26 2 -4 7 -3 8 4 4 8 -5 12 1 12 15 0 17 -3 19 -14 10 -15 -13 -32 1
-21 18 6 11 -34 83 -44 77 -8 -5 -5 116 4 144 5 17 10 19 21 9 8 -6 14 -17 14
-23z m394 -159 c20 -43 36 -81 36 -84 0 -4 -18 11 -40 32 -22 21 -40 35 -40
30 0 -5 26 -35 57 -67 61 -62 65 -83 9 -49 -45 28 -80 84 -72 116 3 13 2 26
-3 29 -4 3 -11 29 -15 57 -4 29 -9 66 -12 83 -4 26 -1 23 20 -19 14 -27 41
-85 60 -128z m-97 141 c-3 -8 -6 -5 -6 6 -1 11 2 17 5 13 3 -3 4 -12 1 -19z
m403 -92 c0 -28 -8 -55 -23 -77 -22 -33 -133 -129 -149 -129 -9 0 -48 74 -48
91 0 7 7 8 18 4 22 -8 81 -17 65 -9 -22 10 -14 20 27 34 53 17 77 42 90 90 6
22 13 40 15 40 3 0 5 -20 5 -44z m-593 -18 c-3 -8 -6 -5 -6 6 -1 11 2 17 5 13
3 -3 4 -12 1 -19z m626 -25 c7 -9 5 -13 -7 -13 -11 0 -16 8 -15 28 0 15 3 21
6 12 3 -8 10 -21 16 -27z m-524 -63 l0 -25 -10 24 c-5 14 -19 41 -30 60 l-21
36 31 -35 c18 -20 31 -45 30 -60z m586 20 c39 -9 39 -9 -10 -5 -27 3 -55 1
-61 -3 -7 -4 -17 -39 -23 -79 -18 -114 -20 -109 52 -122 118 -20 111 -23 124
39 6 30 11 71 11 90 0 22 -6 6 -17 -45 -12 -59 -21 -81 -34 -83 -10 -2 -16 2
-14 10 2 7 2 10 0 6 -6 -11 -57 -10 -87 2 -30 11 -32 28 -14 115 l11 58 66 -6
c36 -3 75 -9 85 -13 14 -5 17 -4 12 4 -5 8 2 12 21 11 33 -1 86 -17 61 -18
-17 -1 -30 -44 -43 -147 l-7 -50 78 -17 c75 -16 80 -16 92 0 15 21 31 74 37
128 4 39 4 39 -11 -10 -8 -27 -17 -56 -19 -62 -3 -7 -12 -13 -22 -13 -13 0
-14 3 -5 12 22 22 14 64 -15 78 -51 24 -70 19 -83 -21 -7 -20 -10 -43 -7 -50
3 -8 6 -1 6 15 1 20 5 27 15 23 10 -4 13 -1 9 9 -7 20 50 19 68 -2 16 -19 2
-47 -27 -53 -16 -3 -17 -1 -5 13 11 14 11 16 -3 16 -10 0 -16 -9 -16 -25 0
-17 5 -24 18 -23 36 3 52 -2 52 -17 0 -18 -20 -19 -85 -1 l-50 13 3 48 c1 27
7 66 12 86 l10 38 66 -19 c75 -20 74 -9 -1 13 -27 9 -43 16 -34 16 31 2 149
-40 149 -52 -1 -55 -70 -229 -124 -310 -40 -60 -170 -176 -197 -177 -37 0
-128 168 -149 278 -14 70 -8 239 9 285 11 30 27 32 96 17z m-804 -42 c7 -18
21 -40 30 -48 9 -8 28 -31 43 -51 25 -35 26 -37 9 -56 -10 -10 -14 -12 -9 -3
12 21 -55 -49 -81 -85 l-21 -30 1 156 c1 87 5 155 8 153 4 -2 12 -18 20 -36z
m309 -28 c-9 -17 -4 -30 11 -30 4 0 10 8 12 18 3 12 5 10 6 -6 0 -13 -9 -38
-21 -54 -18 -26 -19 -34 -8 -52 11 -19 11 -20 -4 -6 -15 15 -58 160 -50 169 2
2 12 -3 22 -12 30 -27 38 -19 11 11 l-24 27 27 -24 c21 -18 25 -28 18 -41z
m349 24 c-18 -20 -52 -49 -73 -65 -21 -16 -35 -29 -30 -29 13 0 75 38 103 64
l24 21 -8 -25 c-4 -14 -7 -35 -7 -48 0 -14 -15 -35 -39 -56 -21 -18 -39 -36
-39 -39 0 -13 22 -7 51 14 l29 20 0 -30 c0 -20 -5 -31 -14 -31 -8 0 -18 -5
-22 -11 -4 -8 1 -9 17 -5 21 6 21 5 6 -4 -25 -16 -55 -3 -72 30 -21 41 -19 48
18 63 17 8 39 22 47 33 12 15 9 14 -16 -4 -44 -30 -74 -32 -85 -5 -7 18 -3 25
24 42 18 11 50 38 72 60 21 23 41 41 44 41 3 0 -11 -16 -30 -36z m224 29 c-7
-2 -19 -2 -25 0 -7 3 -2 5 12 5 14 0 19 -2 13 -5z m-418 -119 c34 -8 33 -33
-1 -26 -29 5 -104 72 -104 92 0 7 18 -4 40 -24 22 -19 51 -38 65 -42z m-365
-8 c0 -11 0 -11 -29 34 l-23 35 26 -30 c14 -16 26 -34 26 -39z m200 -241 c11
-203 12 -405 3 -497 -5 -57 -9 -68 -24 -68 -23 0 -24 -13 -4 -30 15 -13 21
-76 7 -82 -4 -1 -5 -16 -1 -33 4 -16 7 -22 8 -13 1 12 6 15 17 11 13 -5 15
-16 11 -52 -8 -64 -33 -134 -53 -146 -33 -19 -69 -54 -56 -55 6 0 12 4 12 9 0
5 11 8 25 5 19 -3 25 0 25 13 1 14 4 12 15 -7 l15 -25 -6 30 c-6 29 -6 29 11
10 17 -21 17 -21 -1 33 -3 9 3 4 15 -13 12 -17 21 -23 21 -15 -1 8 -7 24 -15
34 -8 11 -15 25 -15 30 0 6 5 4 10 -6 6 -10 18 -14 30 -11 16 4 18 8 9 19 -7
8 -9 18 -5 22 4 4 12 -1 17 -11 6 -9 14 -15 18 -12 5 2 26 -11 47 -31 22 -19
28 -28 14 -20 -49 31 -54 15 -6 -19 27 -19 53 -35 58 -35 32 0 -28 77 -112
143 -25 20 -28 24 -10 16 14 -7 51 -32 82 -57 31 -24 62 -42 68 -40 22 7 -55
90 -138 148 -47 33 -82 60 -77 60 13 0 76 -41 140 -90 34 -26 71 -53 84 -59
20 -11 22 -11 19 6 -2 10 -8 18 -13 18 -17 0 -74 45 -87 68 -6 13 7 4 32 -20
24 -23 46 -40 49 -37 6 6 -108 119 -169 168 -31 25 -31 26 -5 11 70 -42 103
-69 182 -147 67 -65 81 -84 68 -90 -8 -5 -15 -16 -15 -23 0 -8 -3 -15 -8 -15
-10 0 -28 -44 -43 -103 -10 -43 -10 -51 5 -65 16 -16 17 -15 10 12 -5 21 -4
27 5 22 15 -9 14 7 -1 22 -15 15 -6 24 16 16 11 -4 15 -12 10 -23 -14 -33 -16
-138 -3 -162 7 -13 13 -27 14 -31 0 -3 13 -17 30 -30 23 -18 39 -22 76 -20 25
2 70 -3 99 -12 30 -9 77 -16 106 -16 29 0 56 -5 60 -11 4 -8 -4 -9 -27 -5
l-34 7 28 -16 c30 -17 36 -34 12 -36 -23 -2 -29 -4 -41 -11 -6 -4 -16 3 -22
16 -12 26 -51 38 -91 26 -23 -7 -21 -8 17 -9 42 -1 56 -14 26 -25 -10 -4 -13
-2 -8 6 5 7 2 9 -7 6 -45 -17 -61 -20 -55 -9 9 14 7 14 -44 -4 -34 -12 -40
-12 -31 -1 9 11 3 12 -37 5 -26 -4 -60 -11 -77 -15 -27 -7 -29 -6 -16 9 18 22
0 22 -42 1 l-32 -17 28 26 c27 26 38 55 15 41 -7 -4 -8 -3 -4 5 10 15 29 3 22
-15 -3 -8 -1 -14 5 -14 7 0 9 10 5 24 -4 17 -1 26 11 30 10 4 13 10 7 14 -5 4
-20 20 -32 36 -26 34 -30 18 -5 -22 9 -15 13 -24 8 -20 -4 4 -13 1 -19 -7 -8
-11 -18 -13 -41 -6 -28 9 -29 9 -5 11 l25 1 -27 15 c-33 17 -36 24 -8 17 29
-8 25 2 -12 27 l-33 22 30 -6 30 -6 -33 30 -34 31 39 -7 38 -7 -20 24 c-12 13
-27 33 -35 44 -15 19 -14 19 10 2 61 -42 53 -1 -11 62 -60 59 -56 67 8 15 24
-20 46 -34 49 -32 14 15 -113 158 -140 158 -13 0 18 -50 34 -55 10 -3 26 -15
36 -26 l19 -21 -38 18 c-26 12 -43 30 -53 53 -8 19 -17 32 -19 29 -3 -3 2 -21
10 -41 8 -20 15 -47 15 -59 0 -15 3 -19 8 -11 6 9 23 -2 58 -38 l49 -51 -52
31 c-39 22 -53 27 -53 16 0 -8 14 -24 30 -37 33 -24 39 -48 13 -48 -14 0 -15
2 -5 9 18 11 -41 36 -60 25 -7 -4 -10 -4 -6 1 10 10 -29 38 -41 30 -13 -7 -62
16 -55 26 6 10 -38 29 -64 29 -15 0 -15 -2 -2 -10 13 -8 12 -10 -2 -10 -14 0
-18 9 -18 41 0 51 11 72 55 99 30 19 33 24 22 41 -14 23 -32 26 -19 3 7 -12
-2 -26 -36 -58 -43 -41 -45 -46 -43 -95 1 -42 -2 -51 -16 -52 -17 -1 -17 -2 0
-6 18 -5 24 -43 6 -43 -12 0 -89 43 -89 50 0 3 16 14 35 24 41 23 72 54 41 43
-18 -7 -18 -7 0 20 52 80 72 149 103 364 35 240 44 379 38 597 -4 114 -9 223
-12 242 -5 27 -1 22 15 -20 16 -43 23 -94 30 -225z m113 211 c18 -13 46 -31
62 -41 29 -17 30 -17 9 1 -12 11 -34 29 -50 42 l-29 22 32 -15 c18 -8 39 -15
47 -15 17 0 40 -36 32 -49 -3 -5 1 -11 9 -15 22 -8 19 -39 -2 -33 -10 3 -35 8
-56 12 -44 7 -103 39 -111 60 -3 8 -1 15 4 15 6 0 10 9 10 20 0 26 4 25 43 -4z
m-316 -103 c3 -21 7 -40 9 -42 2 -2 -1 -12 -7 -22 -5 -11 -6 -19 -2 -19 4 0 9
-24 11 -52 2 -48 1 -50 -13 -32 -8 10 -15 25 -15 32 0 6 -4 12 -9 12 -14 0
-61 48 -61 63 0 17 70 111 77 103 3 -2 7 -22 10 -43z m343 -1 c-9 -3 -90 35
-90 43 0 2 22 -6 49 -18 27 -12 45 -23 41 -25z m-407 16 c-11 -13 -25 -32 -31
-43 -6 -11 -12 -15 -12 -8 0 12 48 73 58 73 3 0 -4 -10 -15 -22z m479 -157
c28 -17 46 -21 69 -16 l31 7 -18 -32 c-11 -18 -25 -34 -31 -37 -7 -3 -13 -14
-13 -26 0 -11 -11 -35 -25 -53 -30 -39 -31 -46 -5 -69 11 -10 20 -13 20 -7 0
7 -4 12 -10 12 -5 0 -10 4 -10 9 0 5 8 7 18 4 10 -2 26 5 36 16 11 12 24 21
29 21 6 0 2 -7 -9 -15 -16 -12 -17 -16 -5 -24 8 -5 16 -17 17 -27 1 -9 8 -22
13 -27 8 -8 9 -2 5 22 -6 27 -4 32 6 26 10 -6 12 -3 8 13 -4 12 -1 22 4 22 13
0 5 -56 -20 -130 -13 -40 -22 -55 -35 -54 -19 2 -23 -11 -5 -22 19 -12 44 31
69 121 13 47 26 85 30 85 5 0 4 -55 -5 -133 -2 -20 1 -26 11 -23 7 3 13 -1 13
-10 0 -9 -5 -12 -12 -8 -8 5 -9 2 -4 -12 8 -20 8 -195 1 -203 -3 -2 -5 31 -6
75 0 56 -3 71 -9 52 -4 -14 -3 -80 2 -145 5 -65 9 -131 9 -147 -3 -60 -9 -35
-16 61 -9 148 -15 145 -11 -7 3 -77 1 -122 -4 -105 -5 20 -8 23 -9 10 -1 -17
-4 -16 -32 11 l-30 31 15 59 c20 79 48 255 41 262 -3 3 -5 -2 -5 -12 0 -9 -5
-14 -10 -11 -14 8 -42 -14 -34 -27 3 -5 12 -1 20 9 9 13 13 14 14 4 0 -8 -8
-20 -17 -27 -16 -11 -17 -13 -2 -19 17 -6 15 -22 -26 -202 -5 -19 -8 -21 -24
-11 -15 9 -19 30 -24 142 -3 72 -9 140 -12 151 -3 11 7 -5 24 -35 34 -62 38
-78 16 -60 -18 15 -20 -1 -3 -18 23 -23 39 -14 36 23 -1 19 -5 35 -9 35 -20 0
-126 240 -185 416 -35 107 -64 200 -64 206 0 7 33 -19 73 -58 39 -39 89 -81
109 -93z m-25 133 c-3 -3 -12 -4 -19 -1 -8 3 -5 6 6 6 11 1 17 -2 13 -5z m-23
-33 c9 -7 23 -11 31 -7 8 3 15 1 15 -4 0 -6 8 -10 18 -10 11 0 30 -9 43 -21
23 -20 24 -21 5 -35 -11 -8 -27 -14 -35 -14 -18 0 -131 85 -131 98 0 13 36 8
54 -7z m180 -13 c8 -32 7 -40 -3 -34 -11 7 -21 56 -11 56 4 0 10 -10 14 -22z
m-517 -20 c-3 -7 -5 -2 -5 12 0 14 2 19 5 13 2 -7 2 -19 0 -25z m-133 6 c3 -8
2 -12 -4 -9 -6 3 -10 10 -10 16 0 14 7 11 14 -7z m396 -179 c37 -114 50 -199
50 -347 0 -72 4 -118 10 -118 6 0 10 -13 10 -30 0 -37 -6 -37 -48 -1 -28 24
-34 37 -41 92 l-8 64 -2 -58 c-1 -42 -5 -57 -13 -55 -15 5 -28 141 -17 173 3
11 4 49 2 85 -7 107 -8 149 -4 275 l3 120 14 -55 c8 -30 28 -95 44 -145z m277
28 c-5 -4 -67 133 -66 145 0 4 16 -26 35 -67 19 -41 33 -76 31 -78z m-627 92
c19 -19 32 -35 29 -35 -3 0 -20 16 -39 35 -19 19 -32 35 -29 35 3 0 20 -16 39
-35z m647 -7 c-3 -8 -6 -5 -6 6 -1 11 2 17 5 13 3 -3 4 -12 1 -19z m23 -40
c-1 -45 -3 -58 -10 -46 -9 14 -3 108 6 108 2 0 4 -28 4 -62z m-634 -46 c4 -13
-2 -42 -13 -68 l-20 -45 -7 62 c-3 34 -6 76 -6 93 l0 31 20 -25 c11 -14 23
-35 26 -48z m12 23 c-3 -3 -9 2 -12 12 -6 14 -5 15 5 6 7 -7 10 -15 7 -18z
m769 -435 c41 -96 82 -187 89 -202 8 -16 11 -28 7 -28 -5 0 -39 73 -77 163
-38 89 -100 228 -138 309 -37 82 -68 151 -67 155 1 13 106 -213 186 -397z
m-74 307 l-1 -52 7 45 c5 39 7 42 13 20 9 -28 11 -156 3 -148 -3 2 -7 20 -9
39 -2 19 -9 33 -15 32 -7 -2 -11 16 -11 46 0 27 -3 57 -6 65 -4 11 -2 15 7 11
10 -4 14 -21 12 -58z m-152 34 c6 9 9 10 9 2 0 -17 -14 -23 -29 -13 -9 5 -10
13 -5 21 7 11 9 10 12 -5 3 -15 6 -16 13 -5z m-521 -58 c0 -34 -1 -35 -14 -18
-10 14 -11 25 -5 37 14 27 19 22 19 -19z m-20 -43 c12 -16 19 -30 16 -30 -2 0
-14 14 -26 30 -12 17 -19 30 -16 30 2 0 14 -13 26 -30z m357 -42 c-3 -7 -5 -2
-5 12 0 14 2 19 5 13 2 -7 2 -19 0 -25z m294 -152 c1 -57 -2 -110 -7 -117 -4
-8 -9 -61 -10 -119 -1 -58 -2 -123 -3 -145 -1 -33 5 -45 32 -68 26 -22 29 -29
17 -37 -8 -5 -18 -6 -23 -3 -5 3 -15 -4 -23 -16 -8 -12 -21 -21 -28 -21 -14 0
-30 -29 -22 -38 3 -2 21 9 41 27 23 20 45 31 63 30 27 -2 27 -2 2 -6 -27 -5
-62 -30 -122 -86 -44 -40 -51 -37 -11 5 21 22 23 28 10 28 -9 0 -17 -6 -18
-12 0 -9 -2 -10 -5 -1 -3 6 8 36 24 66 16 30 32 65 36 78 11 38 12 168 1 174
-6 3 -5 7 3 11 8 4 12 34 12 97 0 58 4 87 9 78 6 -8 8 33 5 105 -2 81 -1 112
6 96 5 -12 10 -69 11 -126z m-242 24 c5 -36 13 -110 17 -165 l6 -100 -21 20
c-18 18 -21 36 -27 175 -5 110 -3 152 4 145 6 -5 15 -39 21 -75z m-42 -87 c-2
-32 -3 -8 -3 52 0 61 1 87 3 58 2 -29 2 -78 0 -110z m-478 25 c7 -32 17 -58
24 -58 6 0 -4 -11 -23 -25 -19 -14 -35 -25 -37 -25 -1 0 2 12 8 28 6 15 8 56
4 97 -7 80 5 71 24 -17z m808 40 c-3 -8 -6 -5 -6 6 -1 11 2 17 5 13 3 -3 4
-12 1 -19z m-763 -63 c3 -9 0 -12 -9 -9 -7 3 -16 12 -19 19 -3 9 0 12 9 9 7
-3 16 -12 19 -19z m941 7 c-3 -3 -11 0 -18 7 -9 10 -8 11 6 5 10 -3 15 -9 12
-12z m-110 -139 c-2 -34 -6 -70 -9 -80 -4 -13 4 -23 31 -38 53 -28 65 -56 47
-114 -14 -49 -44 -81 -75 -81 -18 0 -19 11 -18 218 1 188 2 213 14 187 7 -17
12 -55 10 -92z m161 95 c10 -12 13 -18 7 -14 -7 4 -13 4 -13 -1 0 -15 19 -38
32 -38 7 0 13 -9 13 -20 0 -11 5 -20 10 -21 6 -1 25 -7 43 -15 29 -12 32 -18
32 -54 0 -45 19 -88 20 -45 1 23 3 21 25 -15 27 -43 32 -60 14 -49 -8 5 -8 1
0 -14 14 -27 15 -53 1 -32 -9 13 -11 13 -20 0 -5 -8 -10 -28 -11 -45 -2 -28
-2 -28 -7 -5 l-5 25 -7 -25 -7 -25 -12 30 c-19 46 -51 56 -51 16 0 -10 -7 -25
-17 -32 -15 -13 -15 -12 -5 8 19 35 14 50 -21 70 l-33 20 -18 -24 c-10 -14
-20 -22 -23 -19 -3 3 -1 12 6 19 6 8 8 22 5 32 -5 12 0 23 16 35 22 16 21 40
-1 40 -6 0 -8 -4 -5 -9 7 -11 -69 5 -99 22 -20 11 -21 15 -10 62 l11 50 8 -39
c11 -58 34 -88 64 -84 38 5 47 28 31 81 -9 31 -16 42 -22 34 -5 -7 -6 8 -3 36
9 74 19 83 52 45z m-958 -19 c12 -21 12 -22 0 -7 -8 10 -19 14 -23 10 -5 -4
-5 -2 -2 5 4 6 2 14 -3 16 -6 3 -5 4 1 3 7 -1 19 -13 27 -27z m282 -59 c0 -11
-7 -20 -15 -20 -8 0 -15 9 -15 20 0 11 7 20 15 20 8 0 15 -9 15 -20z m70 -45
c19 -19 30 -35 24 -35 -15 0 -84 50 -84 60 0 20 27 9 60 -25z m387 -137 c-2
-35 -3 -9 -3 57 0 66 1 94 3 63 2 -32 2 -86 0 -120z m-50 20 c-2 -29 -3 -8 -3
47 0 55 1 79 3 53 2 -26 2 -71 0 -100z m30 -30 c-2 -29 -3 -8 -3 47 0 55 1 79
3 53 2 -26 2 -71 0 -100z m-812 102 c3 -5 13 -6 22 -3 13 5 15 2 10 -11 -4
-10 -7 -25 -8 -34 0 -12 -3 -10 -9 6 -8 19 -13 21 -29 13 -10 -6 -21 -18 -25
-27 -5 -14 -9 -14 -23 -3 -15 12 -16 12 -9 -6 4 -11 4 -16 0 -13 -3 4 -13 1
-20 -7 -18 -17 -44 -9 -44 14 0 13 2 13 9 2 7 -11 10 -11 17 0 5 8 9 17 9 21
0 9 67 56 82 57 6 1 14 -3 18 -9z m69 -32 c19 -37 20 -41 5 -32 -8 5 -8 1 0
-14 8 -15 8 -23 -1 -28 -7 -4 -8 -3 -4 4 4 7 3 12 -2 12 -6 0 -12 20 -14 45
-2 25 -2 45 -1 45 1 0 9 -14 17 -32z m358 6 c21 -15 36 -29 34 -32 -9 -8 -73
27 -80 43 -8 21 3 19 46 -11z m-385 -26 c-3 -7 -5 -2 -5 12 0 14 2 19 5 13 2
-7 2 -19 0 -25z m-17 -43 c16 -19 4 -35 -25 -35 -27 0 -39 14 -31 35 7 19 40
19 56 0z m347 -17 c-3 -7 -5 -2 -5 12 0 14 2 19 5 13 2 -7 2 -19 0 -25z m-483
4 c2 -4 1 -14 -5 -22 -7 -13 -9 -12 -9 2 0 9 -6 19 -12 21 -8 3 -7 6 4 6 9 1
19 -3 22 -7z m76 -30 c0 -15 -11 -21 -27 -15 -12 5 -12 7 -1 14 17 11 28 11
28 1z m714 -40 c-1 -21 2 -30 10 -25 6 3 7 2 3 -3 -5 -5 -14 -9 -19 -9 -6 0
-13 -6 -16 -14 -3 -9 0 -11 8 -6 7 4 5 -7 -5 -26 -20 -39 -31 -52 -22 -26 5
12 -1 30 -14 48 -20 29 -14 40 9 17 15 -15 16 -3 2 23 -8 15 -7 21 4 25 8 3
12 12 9 21 -4 11 -1 14 13 11 14 -3 19 -12 18 -36z m351 -4 c-6 -25 -5 -30 8
-25 10 4 17 -1 20 -11 3 -12 5 -11 6 5 0 12 6 25 11 28 16 10 1 -42 -24 -85
-19 -33 -19 -34 -1 -20 17 14 18 13 12 -3 -4 -10 -3 -16 2 -12 5 3 12 1 15 -4
4 -5 2 -12 -4 -16 -6 -4 -7 -12 -3 -18 3 -7 -4 -3 -17 8 -13 11 -20 14 -16 7
8 -13 16 -62 10 -62 -1 0 -9 7 -18 15 -10 11 -14 31 -11 72 4 49 3 52 -4 18
-4 -22 -11 -51 -15 -64 -5 -15 -5 -21 2 -17 5 3 12 -8 14 -24 6 -39 -2 -46
-17 -16 -18 35 -7 227 14 243 23 17 23 17 16 -19z m26 9 c-10 -9 -11 -8 -5 6
3 10 9 15 12 12 3 -3 0 -11 -7 -18z m-214 -19 c-3 -8 -6 -5 -6 6 -1 11 2 17 5
13 3 -3 4 -12 1 -19z m140 -50 c-2 -13 -4 -5 -4 17 -1 22 1 32 4 23 2 -10 2
-28 0 -40z m-1139 21 c-2 -3 21 -30 49 -60 53 -54 62 -72 43 -84 -5 -3 -10 0
-10 7 0 15 -36 49 -43 41 -3 -2 -8 5 -12 17 -5 16 -10 18 -19 10 -10 -8 -13
-4 -10 17 1 15 -2 35 -8 46 -7 14 -7 18 2 15 6 -2 10 -6 8 -9z m1118 -36 c-11
-72 -38 -165 -46 -156 -9 10 -50 125 -50 141 0 7 10 12 23 12 13 0 34 11 47
25 13 14 25 25 28 25 2 0 1 -21 -2 -47z m177 -9 c-6 -16 -7 -16 -19 1 -7 9
-10 23 -7 31 4 11 7 11 19 -1 8 -7 11 -21 7 -31z m-46 19 c-4 -3 -2 -12 3 -19
16 -19 20 -53 7 -60 -7 -4 -9 -4 -5 1 4 4 -1 20 -12 35 -14 20 -16 30 -8 38 7
7 14 12 17 12 2 0 1 -3 -2 -7z m-255 -20 c-10 -4 -9 -8 5 -19 13 -9 14 -13 4
-14 -11 0 -11 -3 -1 -15 10 -12 7 -12 -20 1 -17 9 -34 14 -37 10 -3 -3 11 -13
31 -22 35 -17 48 -34 26 -34 -6 0 -25 7 -41 16 -17 8 -35 14 -41 12 -5 -2 13
-14 41 -28 71 -33 64 -44 -11 -16 -67 25 -78 37 -56 63 13 17 85 53 103 52 6
0 4 -3 -3 -6z m-882 -18 c0 -9 -6 -12 -15 -9 -8 4 -15 10 -15 15 0 5 7 9 15 9
8 0 15 -7 15 -15z m1189 -20 c-12 -19 -23 -35 -25 -35 -2 0 4 16 13 35 9 19
20 35 25 35 4 0 -2 -16 -13 -35z m-185 -68 c-18 -56 -61 -147 -69 -147 -3 0 4
19 16 42 28 55 59 145 60 177 2 24 2 24 6 3 2 -12 -3 -46 -13 -75z m-651 47
c18 -9 34 -18 36 -20 2 -2 -14 -23 -35 -48 -48 -56 -79 -63 -38 -8 l27 37 -26
-24 c-34 -31 -43 -22 -22 21 l16 33 -24 -27 -25 -27 -5 27 c-10 51 34 67 96
36z m62 -4 c3 -6 -1 -7 -9 -4 -18 7 -21 14 -7 14 6 0 13 -4 16 -10z m-365 -16
c14 0 28 5 32 10 5 7 8 6 8 -2 0 -7 5 -10 10 -7 15 9 12 -21 -2 -32 -7 -6 -21
-9 -30 -8 -12 2 -18 -3 -18 -17 0 -16 -3 -18 -14 -9 -11 9 -15 9 -19 -1 -3 -7
-6 -3 -6 9 -1 12 -6 23 -12 25 -9 3 -9 10 1 27 7 13 15 19 19 14 3 -5 17 -9
31 -9z m627 -51 c-2 -16 -4 -5 -4 22 0 28 2 40 4 28 2 -13 2 -35 0 -50z m-507
35 c0 -4 4 -7 9 -5 5 1 17 -7 26 -18 14 -17 16 -18 11 -2 -4 11 -2 16 5 12 5
-4 7 -16 3 -27 -4 -14 -2 -18 5 -14 6 4 11 1 11 -7 0 -8 7 -18 16 -21 10 -4
14 -14 11 -26 -7 -26 27 -22 48 6 13 16 14 16 9 2 -11 -32 5 -19 25 20 11 20
20 33 21 29 0 -5 -5 -17 -11 -29 -6 -11 -8 -22 -5 -25 3 -3 13 9 21 28 16 34
16 34 10 4 -4 -16 -15 -39 -26 -50 l-20 -20 6 20 c6 17 3 16 -14 -5 -17 -20
-20 -21 -14 -5 5 16 4 18 -8 9 -23 -17 -54 -12 -53 9 2 14 -1 15 -12 6 -11 -9
-14 -9 -14 0 0 7 -4 10 -9 7 -5 -4 -7 4 -4 16 4 19 3 20 -6 8 -10 -13 -11 -13
-11 0 0 13 -1 13 -10 0 -8 -13 -10 -12 -10 4 0 14 -3 16 -13 8 -8 -7 -18 -7
-27 -2 -8 5 -18 6 -24 3 -5 -3 -6 -1 -2 6 4 6 12 9 17 6 5 -3 6 1 3 10 -5 13
-9 13 -22 3 -9 -7 -5 1 8 18 24 29 50 41 50 22z m291 -45 c0 -24 2 -25 8 -9 7
18 8 18 14 -5 4 -13 7 -37 7 -52 0 -19 4 -26 12 -21 7 4 8 3 4 -5 -4 -6 -11
-9 -16 -6 -4 3 -15 -11 -24 -30 -23 -47 -31 -45 -10 3 9 20 18 51 19 67 1 17
0 20 -2 7 -4 -21 -53 -114 -53 -101 0 4 7 23 16 44 8 20 10 34 5 30 -6 -3 -11
0 -11 7 0 7 -10 -2 -21 -19 -25 -39 -29 -41 -22 -10 5 22 4 21 -16 -3 -18 -21
-17 -15 6 32 15 32 29 51 31 42 2 -8 -2 -22 -9 -30 -6 -8 -9 -17 -6 -21 8 -8
37 60 37 87 0 32 30 25 31 -7z m306 -8 c-5 -33 -4 -35 23 -35 23 0 31 5 36 25
6 26 18 32 29 15 3 -5 17 -10 30 -10 25 0 42 -16 30 -28 -3 -4 -19 1 -34 10
-26 14 -30 14 -42 -1 -8 -9 -14 -25 -14 -35 0 -11 -5 -21 -11 -23 -6 -2 -11 3
-11 11 0 8 5 12 10 9 6 -3 7 -1 4 4 -4 6 -24 13 -46 17 -41 6 -75 30 -68 49 7
22 25 17 36 -10 l11 -28 -5 33 c-3 25 -1 32 12 32 12 0 14 -7 10 -35z m53 12
c0 -14 -19 -37 -31 -37 -3 0 -4 11 -1 25 4 25 32 36 32 12z m134 -41 c-3 -9
-10 -16 -15 -16 -6 0 -5 9 1 20 9 16 8 18 -5 14 -15 -6 -22 16 -8 29 10 11 34
-30 27 -47z m151 34 c-3 -5 -12 -10 -18 -10 -7 0 -6 4 3 10 19 12 23 12 15 0z
m-89 -46 c-12 -30 -25 -13 -13 19 8 23 12 27 15 14 2 -10 1 -25 -2 -33z m-930
21 c-8 -8 -17 -15 -20 -15 -3 0 -3 7 0 15 4 8 13 15 21 15 12 0 12 -2 -1 -15z
m-43 -25 c-3 -12 -8 -19 -11 -16 -5 6 5 36 12 36 2 0 2 -9 -1 -20z m827 10 c0
-5 -4 -10 -10 -10 -5 0 -10 5 -10 10 0 6 5 10 10 10 6 0 10 -4 10 -10z m-90
-42 c0 -5 -13 -2 -30 7 -41 21 -50 18 -20 -6 l25 -21 -33 19 c-18 10 -28 19
-22 21 5 2 8 7 5 12 -3 5 13 1 35 -7 22 -9 40 -20 40 -25z m140 28 c0 -3 -4
-8 -10 -11 -5 -3 -10 -1 -10 4 0 6 5 11 10 11 6 0 10 -2 10 -4z m-900 -10 c0
-2 -9 -6 -20 -9 -11 -3 -20 -1 -20 4 0 5 9 9 20 9 11 0 20 -2 20 -4z m181 -52
c49 -45 65 -55 85 -50 14 4 24 2 24 -4 0 -6 4 -9 9 -5 5 3 13 0 17 -6 5 -9 0
-10 -17 -6 -13 4 -44 7 -69 7 -33 0 -41 3 -30 10 13 9 13 10 0 11 -8 1 -18 1
-21 1 -3 -1 -19 12 -34 28 -19 20 -24 30 -14 30 12 0 12 2 0 9 -8 5 -21 6 -30
3 -14 -5 -14 -4 -1 11 8 9 16 16 18 17 1 0 30 -25 63 -56z m675 47 c-4 -5 0
-12 6 -14 8 -3 6 -6 -4 -6 -18 -1 -24 10 -11 22 9 10 15 8 9 -2z m-446 -19 c0
-5 -7 -17 -15 -28 -14 -18 -14 -17 -4 9 12 27 19 34 19 19z m-343 -17 c0 -11
-4 -12 -14 -4 -7 6 -13 13 -13 15 0 2 6 4 13 4 8 0 14 -7 14 -15z m428 -16
c-5 -13 -3 -19 3 -15 14 9 25 -25 12 -38 -8 -8 -9 -6 -4 8 5 13 4 17 -4 12 -7
-4 -12 -2 -12 6 0 7 -5 5 -11 -6 -9 -15 -13 -16 -20 -5 -5 8 -9 19 -9 24 0 6
4 3 10 -5 7 -11 11 -9 19 13 12 32 25 37 16 6z m610 -9 c16 -7 12 -9 -18 -9
-23 -1 -36 3 -32 9 7 12 23 12 50 0z m-964 -43 c11 -4 10 -8 -4 -23 -15 -16
-17 -16 -12 -2 4 11 -1 20 -14 28 -12 6 -21 17 -21 25 0 12 4 11 19 -4 10 -10
25 -21 32 -24z m126 27 c-3 -3 -12 -4 -19 -1 -8 3 -5 6 6 6 11 1 17 -2 13 -5z
m828 -25 c0 -8 -6 -13 -12 -11 -7 1 -13 -2 -13 -8 0 -5 -4 -10 -10 -10 -14 0
-12 37 3 43 18 8 32 2 32 -14z m-882 -52 c18 -7 23 -42 7 -52 -5 -3 -10 -2
-10 3 0 5 -8 12 -19 15 -11 3 -20 16 -23 36 -4 27 -3 29 11 17 9 -7 24 -16 34
-19z m63 20 c9 3 14 -1 14 -12 0 -10 -5 -14 -12 -9 -7 4 -9 3 -5 -1 4 -5 20
-9 34 -10 35 0 40 -19 9 -33 -22 -10 -27 -8 -46 17 -11 16 -20 37 -19 48 0 10
3 13 5 6 3 -7 12 -9 20 -6z m104 -12 c7 -9 10 -18 6 -22 -3 -3 -6 -1 -6 5 0 5
-12 15 -27 20 -24 9 -25 11 -7 11 12 1 27 -6 34 -14z m648 -30 c-3 -3 -9 2
-12 12 -6 14 -5 15 5 6 7 -7 10 -15 7 -18z"/>
<path d="M1755 4085 c32 -54 70 -105 78 -105 8 0 -33 61 -74 110 l-21 25 17
-30z"/>
<path d="M1849 3955 c16 -30 61 -81 61 -69 0 6 -16 28 -35 50 -20 21 -31 30
-26 19z"/>
<path d="M1785 3923 c25 -35 48 -63 51 -63 9 0 -16 36 -56 80 l-42 45 47 -62z"/>
<path d="M1905 3770 c10 -11 20 -20 22 -20 2 0 -2 9 -9 20 -7 11 -17 20 -22
20 -5 0 -1 -9 9 -20z"/>
<path d="M1720 3886 c0 -2 8 -10 18 -17 15 -13 16 -12 3 4 -13 16 -21 21 -21
13z"/>
<path d="M1845 3741 c28 -29 59 -57 70 -63 11 -6 18 -9 15 -6 -3 2 -34 31 -70
63 l-65 59 50 -53z"/>
<path d="M1760 3727 c0 -2 15 -16 33 -33 l32 -29 -29 33 c-28 30 -36 37 -36
29z"/>
<path d="M1980 3800 c6 -11 13 -20 16 -20 2 0 0 9 -6 20 -6 11 -13 20 -16 20
-2 0 0 -9 6 -20z"/>
<path d="M1780 3618 c0 -8 101 -80 106 -76 2 3 -15 18 -38 34 -58 39 -68 46
-68 42z"/>
<path d="M1840 3440 c8 -5 20 -10 25 -10 6 0 3 5 -5 10 -8 5 -19 10 -25 10 -5
0 -3 -5 5 -10z"/>
<path d="M1820 3400 c8 -5 20 -10 25 -10 6 0 3 5 -5 10 -8 5 -19 10 -25 10 -5
0 -3 -5 5 -10z"/>
<path d="M2320 3302 c0 -5 7 -9 15 -9 8 0 12 4 9 9 -3 4 -9 8 -15 8 -5 0 -9
-4 -9 -8z"/>
<path d="M1888 3143 c6 -2 18 -2 25 0 6 3 1 5 -13 5 -14 0 -19 -2 -12 -5z"/>
<path d="M2245 3110 c10 -11 20 -20 23 -20 3 0 -3 9 -13 20 -10 11 -20 20 -23
20 -3 0 3 -9 13 -20z"/>
<path d="M2500 2965 c-19 -14 -29 -25 -23 -25 12 0 73 49 62 50 -3 0 -20 -11
-39 -25z"/>
<path d="M2542 2870 c0 -14 2 -19 5 -12 2 6 2 18 0 25 -3 6 -5 1 -5 -13z"/>
<path d="M2422 2690 c0 -19 2 -27 5 -17 2 9 2 25 0 35 -3 9 -5 1 -5 -18z"/>
<path d="M2431 2624 c0 -11 3 -14 6 -6 3 7 2 16 -1 19 -3 4 -6 -2 -5 -13z"/>
<path d="M2502 2555 c0 -11 3 -29 8 -40 11 -25 11 1 0 35 -6 20 -8 21 -8 5z"/>
<path d="M2790 2436 c0 -14 -5 -17 -21 -13 -15 4 -19 2 -15 -10 3 -8 6 -23 6
-34 0 -12 7 -19 19 -19 22 0 37 17 26 28 -4 4 -10 1 -12 -5 -7 -20 -23 -15
-23 7 0 29 56 28 65 0 9 -28 -11 -50 -44 -50 -20 0 -23 -2 -11 -10 21 -13 22
-13 58 14 l33 24 -41 43 c-30 32 -40 38 -40 25z"/>
<path d="M2714 2190 c13 -83 83 -226 101 -208 7 6 35 167 35 199 0 23 -5 27
-37 32 -21 3 -53 9 -72 13 l-34 7 7 -43z m87 4 l38 -6 -6 -47 c-3 -25 -10 -57
-14 -71 -6 -21 -8 -18 -10 20 -1 25 -3 53 -2 63 0 12 -6 16 -19 11 -10 -3 -18
-1 -18 5 0 25 -20 9 -21 -16 l-1 -28 -8 25 c-14 43 -12 63 6 56 9 -3 33 -9 55
-12z m-11 -92 c0 -26 5 -53 11 -59 6 -6 9 -17 7 -25 -3 -7 -17 10 -31 39 -29
57 -32 67 -17 58 6 -3 10 3 10 14 0 12 5 21 10 21 6 0 10 -22 10 -48z"/>
<path d="M2916 2179 c-12 -35 -46 -222 -42 -227 3 -3 8 3 12 12 3 9 10 14 14
11 13 -8 68 43 121 113 27 36 49 68 49 72 0 4 -19 10 -42 13 -24 4 -58 9 -75
13 -23 5 -34 3 -37 -7z m120 -26 c11 -4 11 -10 -3 -34 -10 -16 -21 -29 -25
-29 -13 0 -9 38 5 43 6 2 -7 4 -30 3 -23 0 -39 -5 -36 -10 4 -5 1 -6 -5 -2 -7
4 -12 0 -12 -10 0 -10 -2 -15 -5 -12 -3 3 -2 19 1 37 7 33 7 33 52 26 24 -4
51 -9 58 -12z m-50 -68 c0 -16 -18 -42 -43 -67 l-43 -42 1 29 c0 26 2 27 9 10
8 -18 9 -18 9 -2 1 10 8 20 17 24 12 4 13 8 3 14 -19 11 5 59 30 59 14 0 19
-7 17 -25z m-69 -17 c-3 -8 -6 -5 -6 6 -1 11 2 17 5 13 3 -3 4 -12 1 -19z"/>
<path d="M2001 2400 c0 -8 4 -24 9 -35 5 -13 9 -14 9 -5 0 8 -4 24 -9 35 -5
13 -9 14 -9 5z"/>
<path d="M2540 1015 c7 -9 15 -13 17 -11 7 7 -7 26 -19 26 -6 0 -6 -6 2 -15z"/>
<path d="M2530 993 c0 -13 29 -38 35 -31 3 3 -4 13 -15 23 -11 10 -20 13 -20
8z"/>
<path d="M2530 948 c0 -9 5 -20 11 -23 17 -11 18 -2 3 19 -12 17 -14 17 -14 4z"/>
<path d="M2581 804 c0 -11 3 -14 6 -6 3 7 2 16 -1 19 -3 4 -6 -2 -5 -13z"/>
<path d="M2640 792 c0 -5 7 -9 15 -9 8 0 15 4 15 9 0 4 -7 8 -15 8 -8 0 -15
-4 -15 -8z"/>
<path d="M2686 792 c-3 -5 1 -9 9 -9 8 0 15 4 15 9 0 4 -4 8 -9 8 -6 0 -12 -4
-15 -8z"/>
<path d="M2486 1993 c-6 -14 -5 -15 5 -6 7 7 10 15 7 18 -3 3 -9 -2 -12 -12z"/>
<path d="M2584 1840 c3 -14 6 -42 6 -62 0 -21 4 -38 8 -38 14 0 11 70 -5 98
l-15 27 6 -25z"/>
<path d="M2373 1755 c0 -44 2 -61 4 -37 2 23 2 59 0 80 -2 20 -4 1 -4 -43z"/>
<path d="M2382 1620 c0 -14 2 -19 5 -12 2 6 2 18 0 25 -3 6 -5 1 -5 -13z"/>
<path d="M3085 1418 c3 -7 -5 -18 -17 -23 -26 -12 -42 -56 -33 -93 l7 -27 14
34 c9 22 19 31 29 27 33 -12 48 66 15 84 -15 8 -18 7 -15 -2z"/>
<path d="M2775 1080 c3 -5 11 -10 16 -10 6 0 7 5 4 10 -3 6 -11 10 -16 10 -6
0 -7 -4 -4 -10z"/>
<path d="M2187 1043 c-4 -3 -7 -11 -7 -17 0 -6 5 -5 12 2 6 6 9 14 7 17 -3 3
-9 2 -12 -2z"/>
<path d="M2357 951 c-4 -19 -5 -36 -2 -39 3 -3 5 3 6 14 1 15 3 13 9 -6 6 -20
8 -21 8 -5 0 11 -3 31 -7 45 -7 24 -7 24 -14 -9z"/>
<path d="M1165 4280 c-3 -6 1 -7 9 -4 18 7 21 14 7 14 -6 0 -13 -4 -16 -10z"/>
<path d="M1108 4263 c7 -3 16 -2 19 1 4 3 -2 6 -13 5 -11 0 -14 -3 -6 -6z"/>
<path d="M1053 4211 c0 -11 5 -18 9 -15 4 3 5 11 1 19 -7 21 -12 19 -10 -4z"/>
<path d="M986 4173 c-12 -12 -5 -22 14 -20 11 1 20 4 20 8 0 10 -27 19 -34 12z"/>
<path d="M941 4114 c0 -11 3 -14 6 -6 3 7 2 16 -1 19 -3 4 -6 -2 -5 -13z"/>
<path d="M900 4060 c0 -5 5 -10 10 -10 6 0 10 5 10 10 0 6 -4 10 -10 10 -5 0
-10 -4 -10 -10z"/>
<path d="M835 4030 c-10 -11 -15 -23 -12 -27 4 -3 7 -1 7 5 0 7 7 12 16 12 9
0 12 -5 8 -12 -4 -7 -3 -8 4 -4 6 4 9 13 5 21 -4 11 0 14 13 9 16 -5 16 -4 4
5 -21 15 -24 14 -45 -9z"/>
<path d="M771 3954 c-18 -19 -20 -24 -7 -24 9 0 16 4 16 9 0 5 10 11 22 13 18
2 19 5 7 15 -11 9 -19 7 -38 -13z"/>
<path d="M739 3896 c7 -9 8 -17 2 -20 -5 -3 -12 0 -14 6 -4 9 -12 5 -26 -12
-24 -29 -28 -49 -6 -26 9 8 21 13 28 10 7 -2 18 5 25 16 13 22 9 40 -10 40 -7
0 -6 -5 1 -14z"/>
<path d="M3130 3848 c-53 -64 -67 -89 -20 -38 36 40 66 80 58 80 -2 0 -19 -19
-38 -42z"/>
<path d="M3151 3827 l-34 -42 41 40 c44 41 47 45 35 45 -5 0 -23 -19 -42 -43z"/>
<path d="M655 3810 c-3 -5 -1 -10 4 -10 6 0 11 5 11 10 0 6 -2 10 -4 10 -3 0
-8 -4 -11 -10z"/>
<path d="M3120 3718 c-45 -43 -55 -55 -25 -30 48 38 113 103 104 102 -2 -1
-38 -33 -79 -72z"/>
<path d="M615 3760 c-22 -24 -18 -31 12 -26 23 5 42 21 43 36 0 13 -42 4 -55
-10z"/>
<path d="M577 3693 c-4 -6 -1 -13 5 -16 10 -4 11 -7 1 -18 -10 -10 -13 -10
-13 0 0 7 -4 9 -10 6 -13 -8 -13 -45 0 -45 12 0 61 72 54 79 -3 3 -9 -1 -13
-8 -7 -11 -9 -11 -13 0 -3 9 -6 10 -11 2z"/>
<path d="M536 3588 c3 -5 10 -6 15 -3 13 9 11 12 -6 12 -8 0 -12 -4 -9 -9z"/>
<path d="M3095 3515 c-22 -13 -36 -25 -31 -25 10 0 76 39 76 46 0 7 -3 5 -45
-21z"/>
<path d="M445 3400 c-3 -5 -1 -10 4 -10 6 0 11 5 11 10 0 6 -2 10 -4 10 -3 0
-8 -4 -11 -10z"/>
<path d="M401 3364 c-6 -15 -10 -29 -7 -31 2 -2 7 5 11 18 6 17 9 19 16 8 6
-10 9 -8 9 9 0 30 -14 28 -29 -4z"/>
<path d="M2496 3320 c30 -12 43 -34 15 -25 -13 4 -21 2 -21 -5 0 -16 28 -24
44 -11 7 6 16 8 19 4 4 -3 7 1 7 10 0 20 -30 37 -62 36 -23 0 -23 0 -2 -9z"/>
<path d="M377 3259 c-4 -16 -3 -18 9 -8 16 13 19 29 5 29 -5 0 -11 -9 -14 -21z"/>
<path d="M337 3196 c-10 -25 -9 -25 13 -19 11 3 20 13 20 22 0 13 -2 13 -9 2
-7 -11 -9 -11 -13 0 -3 9 -6 8 -11 -5z"/>
<path d="M2493 3176 c0 -8 8 -11 19 -8 10 2 15 8 12 13 -8 14 -31 11 -31 -5z"/>
<path d="M4296 1242 c-3 -5 1 -9 9 -9 8 0 15 4 15 9 0 4 -4 8 -9 8 -6 0 -12
-4 -15 -8z"/>
<path d="M4240 1191 c0 -5 5 -13 10 -16 6 -3 10 -2 10 4 0 5 -4 13 -10 16 -5
3 -10 2 -10 -4z"/>
<path d="M4170 1069 c0 -5 5 -7 10 -4 6 3 10 8 10 11 0 2 -4 4 -10 4 -5 0 -10
-5 -10 -11z"/>
<path d="M3769 723 c-13 -17 -13 -17 6 -3 11 8 22 16 24 17 2 2 0 3 -6 3 -6 0
-17 -8 -24 -17z"/>
<path d="M3445 510 c3 -5 8 -10 11 -10 2 0 4 5 4 10 0 6 -5 10 -11 10 -5 0 -7
-4 -4 -10z"/>
</g>
</svg>
