<?xml version="1.0" standalone="no"?>
<!DOCTYPE svg PUBLIC "-//W3C//DTD SVG 20010904//EN"
 "http://www.w3.org/TR/2001/REC-SVG-20010904/DTD/svg10.dtd">
<svg version="1.0" xmlns="http://www.w3.org/2000/svg"
 width="500.000000pt" height="500.000000pt" viewBox="0 0 500.000000 500.000000"
 preserveAspectRatio="xMidYMid meet">

<g transform="translate(0.000000,500.000000) scale(0.100000,-0.100000)"
fill="#000000" stroke="none">
<path d="M381 4631 c-2 -55 -35 -97 -94 -120 -49 -19 -50 -20 -19 -20 48 -1
100 -53 111 -111 6 -32 9 -37 10 -17 2 61 45 112 106 125 l39 8 -40 12 c-53
16 -92 58 -103 113 -8 41 -9 42 -10 10z"/>
<path d="M4611 4624 c-1 -48 -39 -95 -91 -113 -32 -11 -39 -16 -25 -19 68 -12
114 -59 116 -118 0 -25 3 -22 17 20 19 54 51 84 103 95 l34 8 -41 11 c-50 15
-81 47 -99 103 -13 41 -14 42 -14 13z"/>
<path d="M1811 3848 c0 -50 3 -96 7 -102 3 -6 5 -27 3 -47 -1 -23 6 -53 19
-79 12 -23 17 -39 11 -36 -31 20 -10 -65 27 -108 16 -18 16 -18 -5 -7 -43 22
-39 -23 6 -72 18 -20 21 -26 8 -22 -21 9 -24 -24 -4 -43 6 -7 13 -23 14 -35 3
-51 27 -113 50 -134 23 -22 23 -23 4 -23 -29 0 -26 -28 3 -41 18 -9 33 -8 57
0 44 15 61 12 24 -4 -16 -8 -42 -14 -57 -15 -36 0 -45 -17 -16 -30 16 -8 36
-8 63 -1 l40 10 -47 -5 c-27 -3 -49 -1 -53 6 -7 11 72 14 99 4 23 -9 9 -24
-22 -25 -15 0 -36 -5 -47 -10 -15 -7 -8 -8 28 -6 26 1 47 -1 47 -5 0 -5 -12
-9 -27 -9 -26 -2 -25 -2 7 -10 28 -6 24 -7 -20 -4 -30 3 -56 9 -58 15 -5 13
-22 13 -22 0 0 -23 64 -42 144 -43 53 -1 71 -3 51 -8 -49 -11 -157 -10 -150 1
3 6 -1 10 -10 10 -9 0 -15 -6 -13 -12 3 -8 33 -16 77 -20 40 -3 75 -9 79 -12
3 -4 -19 -4 -49 0 -39 4 -59 2 -73 -9 -19 -14 -19 -15 4 -27 17 -9 19 -14 10
-20 -22 -14 -3 -37 34 -44 20 -4 34 -11 31 -17 -9 -14 -37 -11 -29 4 5 9 4 9
-6 0 -15 -14 -3 -36 16 -29 11 4 12 2 1 -15 -10 -16 -9 -21 3 -29 8 -5 11 -10
5 -10 -5 0 -2 -7 8 -14 14 -11 16 -18 7 -37 -7 -16 -8 -95 -3 -247 7 -183 11
-226 24 -235 9 -8 19 -42 26 -92 8 -65 16 -89 44 -128 32 -45 34 -47 42 -25 5
13 9 154 9 314 0 240 2 292 13 290 20 -3 55 -51 55 -73 -1 -10 -10 0 -22 25
-34 69 -31 41 4 -39 31 -74 31 -74 36 -285 8 -381 -48 -673 -148 -769 -24 -23
-33 -27 -39 -16 -5 8 -16 11 -30 6 -15 -5 -21 -2 -21 9 0 13 -20 21 -50 18 -3
0 -4 15 -2 35 3 19 7 31 11 26 3 -5 23 -14 45 -20 34 -11 42 -9 67 9 26 19 51
57 29 43 -14 -9 -12 6 5 35 18 31 18 40 3 41 -7 0 -23 13 -36 29 -21 27 -22
33 -11 65 12 33 14 34 31 18 24 -22 33 -11 20 27 -14 39 -93 140 -110 140 -10
0 -11 -14 -6 -61 6 -53 4 -64 -15 -90 -18 -24 -19 -29 -6 -29 9 0 25 5 36 11
18 9 19 8 11 -8 -14 -24 -54 -58 -69 -58 -12 0 -49 -46 -79 -99 -39 -70 13
-222 87 -249 34 -13 37 -23 9 -32 -27 -9 -25 -25 3 -25 13 0 35 -10 48 -22 16
-14 18 -19 7 -15 -10 3 -20 2 -23 -3 -4 -6 3 -10 15 -10 33 0 60 -19 60 -41 0
-16 4 -19 20 -14 16 5 20 2 20 -15 0 -11 7 -23 15 -26 8 -4 15 -12 15 -20 0
-21 18 -17 30 7 8 14 15 17 23 11 7 -6 26 -12 42 -14 25 -2 31 1 33 19 2 14 8
20 18 16 10 -3 14 2 14 18 0 15 -3 19 -8 12 -5 -8 -12 -7 -27 4 -19 15 -19 15
4 8 17 -5 21 -4 16 5 -6 9 -3 9 13 1 11 -6 41 -11 66 -11 36 0 44 -3 40 -15
-7 -18 -4 -18 30 -6 16 7 26 7 28 0 2 -7 13 -7 31 0 34 13 60 14 53 3 -3 -5
14 -8 37 -7 27 0 41 5 39 13 -3 15 14 16 24 1 4 -6 20 -8 40 -4 22 4 34 2 34
-5 0 -7 13 -10 34 -7 25 3 33 1 30 -8 -3 -7 -1 -16 5 -20 7 -4 11 3 11 18 0
21 7 26 45 36 25 6 45 14 45 17 0 3 -7 3 -16 0 -14 -5 -15 -4 -5 8 28 34 -27
69 -75 47 -30 -13 -61 -14 -69 -1 -3 5 13 14 35 21 22 7 40 16 40 21 0 12 76
88 89 88 6 0 11 4 11 9 0 5 3 17 7 27 4 12 3 15 -5 10 -8 -5 -10 -1 -5 10 4
12 3 15 -5 10 -17 -10 -27 23 -12 37 10 9 11 9 6 0 -4 -7 -3 -13 3 -13 5 0 13
-9 16 -20 9 -27 39 -27 32 0 -3 12 0 20 8 20 15 0 25 21 26 58 0 24 1 25 9 7
7 -16 9 -11 9 20 0 28 -8 53 -29 84 -17 24 -30 50 -30 58 0 7 -8 13 -18 13
-11 0 -34 23 -58 56 -24 36 -51 62 -72 71 -40 17 -52 10 -28 -16 15 -16 15
-20 2 -31 -13 -10 -19 -3 -42 47 -26 59 -30 76 -38 175 -4 46 -2 56 10 51 39
-15 171 115 221 219 18 37 40 94 50 128 20 73 21 71 -79 97 -60 15 -69 21 -78
48 -18 51 -24 143 -11 159 8 10 10 27 6 46 -7 30 -6 31 14 20 33 -17 43 -4 26
37 -19 46 -19 46 10 27 24 -16 25 -16 25 6 0 13 -12 38 -26 57 l-25 34 33 -21
c18 -11 36 -20 41 -20 14 0 7 24 -15 48 -21 23 -22 25 -3 17 58 -22 67 -17 40
21 -8 12 -12 24 -9 26 2 3 -11 13 -31 22 -58 28 -25 40 55 22 14 -4 19 -4 12
0 -6 3 -9 10 -6 16 3 5 -2 16 -12 24 -18 14 -16 14 14 9 25 -5 32 -3 32 9 0 8
-8 20 -17 25 -16 9 -15 10 5 11 33 0 25 34 -8 37 -25 3 -25 3 -2 -7 33 -14 27
-20 -19 -20 -27 0 -38 4 -33 11 4 8 -1 9 -16 4 -14 -4 -20 -3 -16 3 3 5 27 13
53 17 53 8 83 21 83 35 0 6 -12 10 -27 10 l-28 0 35 22 c28 18 32 23 17 26
-18 4 -17 5 2 18 26 19 27 34 2 34 -17 0 -15 4 10 30 33 33 31 57 -2 39 -34
-18 -33 -2 1 22 34 26 76 86 66 96 -3 4 -22 -1 -41 -10 -50 -24 -51 -22 -11
24 56 66 79 129 47 129 -5 0 -30 -19 -57 -42 -31 -26 -39 -31 -23 -12 42 46
89 126 89 150 0 39 -17 36 -61 -13 -40 -45 -41 -46 -20 -11 38 63 50 92 57
136 5 34 4 42 -9 42 -9 0 -17 10 -19 23 -2 14 -10 22 -22 22 -15 0 -36 -31
-88 -134 -37 -74 -74 -142 -83 -151 -8 -9 -15 -25 -16 -36 0 -18 -1 -18 -8 -1
-6 18 -7 18 -23 0 -8 -10 -25 -36 -36 -58 -11 -22 -50 -82 -86 -134 l-65 -94
26 -34 c71 -93 69 -238 -5 -316 -39 -42 -62 -48 -114 -30 -39 12 -45 18 -44
41 1 21 9 31 37 44 19 9 41 24 49 33 18 22 14 91 -8 127 -33 56 -135 77 -185
38 -14 -11 -30 -20 -35 -20 -6 0 -13 -4 -16 -8 -11 -18 35 -5 57 16 15 14 36
22 59 22 40 0 100 -20 82 -27 -7 -2 -10 -13 -7 -23 3 -11 0 -20 -6 -20 -6 0
-11 11 -11 25 0 14 -5 25 -10 25 -6 0 -10 -7 -8 -16 2 -10 -3 -19 -9 -21 -7
-3 -13 3 -13 13 0 16 -2 16 -15 -3 -8 -11 -26 -24 -40 -27 -14 -4 -25 -14 -25
-24 -1 -10 -8 -4 -19 17 -11 21 -21 30 -25 22 -4 -6 -12 -9 -17 -6 -5 4 -9 -1
-9 -9 0 -9 5 -16 11 -16 8 0 9 -4 0 -13 -14 -18 -2 -30 16 -15 10 8 17 8 25 0
9 -9 7 -12 -8 -12 -19 0 -52 -55 -40 -67 3 -4 6 -1 6 5 0 7 6 12 13 12 8 0 13
-9 12 -22 -4 -40 -50 -15 -50 26 -1 16 4 22 12 19 7 -3 13 2 13 12 0 9 -4 14
-9 11 -5 -4 -8 5 -6 19 1 14 -1 25 -5 25 -12 0 -19 -26 -15 -58 3 -20 -1 -32
-11 -36 -19 -7 -34 31 -36 97 -1 47 -2 48 -5 12 -7 -63 5 -103 43 -141 29 -28
33 -38 24 -49 -10 -13 -15 -11 -32 10 -11 14 -24 22 -30 19 -7 -4 -8 -2 -4 4
4 6 0 22 -8 34 -8 13 -21 45 -30 71 -14 43 -15 50 -1 63 20 21 19 35 -3 41
-14 3 -18 11 -14 29 2 13 8 27 13 30 21 12 5 51 -64 157 -40 62 -85 134 -101
161 -16 27 -31 44 -35 38 -4 -6 -38 39 -76 100 -85 135 -141 208 -160 208 -11
0 -14 -19 -14 -92z m79 -11 c123 -178 165 -243 166 -257 1 -8 5 -24 9 -35 10
-29 -17 4 -130 160 -90 125 -115 169 -115 202 0 23 20 3 70 -70z m1194 11
c-21 -65 -74 -179 -109 -235 -24 -40 -24 -42 -5 -38 27 5 25 0 -11 -47 -35
-43 -51 -45 -23 -3 14 21 15 28 5 35 -10 6 -9 14 4 36 l17 29 -21 -25 c-11
-14 -21 -31 -21 -37 0 -14 -20 -18 -20 -5 0 4 21 41 46 82 26 41 69 122 97
180 51 107 73 122 41 28z m35 -36 c-19 -60 -80 -163 -92 -155 -6 4 -8 1 -5 -8
8 -20 -16 -62 -36 -65 -13 -2 -11 8 13 49 17 29 35 51 40 50 4 -1 9 8 9 20 0
31 75 186 80 164 2 -9 -2 -34 -9 -55z m-1185 -147 c47 -63 81 -116 78 -125 -3
-8 -1 -12 3 -7 12 11 65 -43 65 -66 0 -17 -2 -18 -16 -6 -55 45 -244 304 -244
333 1 21 1 21 16 1 8 -11 52 -69 98 -130z m1201 23 c-15 -29 -49 -79 -76 -110
-28 -32 -48 -58 -45 -58 3 0 -13 -17 -36 -38 -22 -21 -39 -43 -37 -49 2 -6 51
33 108 88 58 54 106 97 109 95 6 -7 -37 -84 -59 -105 -11 -10 -21 -25 -23 -32
-1 -8 -5 -20 -9 -26 -12 -19 5 -15 33 7 14 11 31 20 38 20 23 0 -4 -36 -58
-77 -27 -21 -49 -44 -50 -51 0 -7 -4 -10 -10 -7 -5 3 -10 1 -10 -5 0 -6 -4 -9
-9 -6 -4 3 -17 -1 -27 -9 -22 -17 -38 -19 -29 -5 4 7 -3 9 -22 5 l-28 -5 29
14 c40 18 44 51 6 48 -3 0 -5 21 -4 46 0 35 4 46 15 44 8 -2 11 0 7 3 -4 4 23
46 59 94 101 130 145 182 150 177 3 -2 -7 -28 -22 -58z m-1228 -81 c13 -16 21
-33 17 -38 -3 -5 -2 -8 3 -7 11 3 146 -139 149 -157 1 -8 0 -15 -2 -15 -18 0
-177 171 -207 222 -44 74 -53 126 -10 63 14 -22 37 -53 50 -68z m980 -52 c-4
-25 -16 -63 -27 -85 -20 -39 -83 -105 -101 -105 -4 0 -15 -9 -22 -20 -13 -17
-13 -22 0 -42 9 -13 13 -23 10 -23 -2 0 -12 11 -21 25 -16 25 -16 27 53 123
38 53 77 114 87 135 10 20 20 37 22 37 3 0 2 -20 -1 -45z m-832 -176 c5 -6 5
-9 -1 -9 -5 0 -34 21 -64 46 -47 39 -45 37 10 -15 36 -33 60 -61 55 -61 -29 0
-205 185 -205 216 0 4 74 -60 205 -177z m1005 178 c0 -2 -10 -12 -22 -23 l-23
-19 19 23 c18 21 26 27 26 19z m-149 -40 c-20 -20 -22 -21 -15 -2 8 21 25 37
33 29 3 -2 -5 -15 -18 -27z m-803 14 c-2 -20 4 -31 15 -28 6 1 11 -6 9 -15 -1
-9 3 -20 9 -24 8 -4 9 -3 5 4 -4 7 -5 12 -3 12 5 0 78 -112 97 -148 12 -25 6
-72 -10 -72 -5 0 -7 -13 -3 -30 3 -20 1 -30 -6 -30 -7 0 -9 -5 -5 -12 7 -11
-8 -5 -33 14 -17 14 -5 38 15 30 15 -5 16 -4 2 13 -11 14 -11 17 -1 11 10 -7
12 -3 6 14 -6 19 -4 21 15 15 28 -9 24 -1 -43 79 -44 54 -69 95 -71 121 -1 6
-6 19 -13 31 -10 17 -9 21 2 21 8 0 14 -3 13 -6z m760 -128 c-22 -24 -26 -32
-12 -25 11 6 26 18 34 26 18 22 29 20 23 -4 -3 -12 -23 -30 -45 -41 -22 -11
-38 -23 -35 -25 2 -3 23 5 46 16 60 32 73 19 15 -15 l-49 -30 60 -6 c58 -7
106 7 88 25 -4 4 0 4 10 0 9 -3 14 -11 10 -17 -3 -6 -1 -7 6 -3 6 4 9 11 6 16
-3 5 7 16 22 25 15 9 19 13 8 10 -11 -3 -16 -3 -12 2 5 4 22 8 38 9 l31 2 -27
-28 c-24 -25 -25 -29 -10 -37 15 -9 13 -13 -16 -30 -18 -12 -39 -19 -47 -16
-11 5 -9 9 9 19 30 16 19 18 -15 3 -14 -7 -23 -16 -20 -20 7 -12 0 -11 -30 2
-14 7 -23 16 -20 21 4 6 -13 8 -41 6 -46 -3 -48 -2 -67 35 -11 20 -25 37 -31
37 -8 0 -7 -4 2 -9 7 -5 11 -15 9 -22 -3 -8 2 -20 11 -26 14 -11 14 -14 1 -23
-12 -8 -12 -10 -1 -10 9 0 12 -8 9 -25 -3 -14 -1 -28 4 -31 4 -3 5 -11 1 -17
-4 -6 -6 -30 -4 -53 1 -23 -3 -45 -9 -49 -8 -5 -8 -11 2 -22 10 -12 9 -17 -4
-24 -10 -5 -14 -17 -11 -29 3 -11 0 -20 -6 -20 -6 0 -11 -7 -11 -15 0 -9 -7
-18 -15 -21 -8 -4 -15 -12 -15 -20 0 -8 -7 -14 -15 -14 -8 0 -15 -6 -15 -14 0
-19 -37 -27 -50 -11 -9 10 -3 21 24 46 20 17 38 41 42 51 3 11 8 17 11 14 3
-3 -2 -18 -12 -33 -15 -23 -15 -26 -2 -15 53 44 70 219 29 301 -12 25 -22 48
-22 53 0 12 84 87 98 88 11 0 16 13 13 33 -1 5 3 6 8 3 5 -4 13 4 17 16 l8 23
4 -24 c3 -16 -7 -34 -30 -58z m-936 4 c35 -29 74 -60 87 -70 14 -9 26 -23 27
-31 3 -23 -63 21 -136 91 -79 76 -64 83 22 10z m241 -64 c36 -38 29 -57 -9
-22 -30 28 -59 74 -69 109 -5 18 0 14 20 -15 15 -22 41 -55 58 -72z m-56 5
c11 -13 29 -36 39 -52 18 -29 18 -29 -3 -18 -24 13 -73 69 -73 83 0 16 16 10
37 -13z m-153 -29 c68 -42 84 -77 18 -38 -38 22 -102 79 -90 79 4 0 36 -18 72
-41z m139 -42 c-3 -5 -1 -7 5 -3 6 3 13 2 17 -4 3 -6 -1 -13 -10 -16 -19 -7
-44 21 -45 50 0 18 1 18 20 1 11 -10 17 -22 13 -28z m-100 -33 c13 -8 15 -14
7 -19 -14 -8 -91 43 -98 64 -4 13 29 -3 91 -45z m942 5 c5 -5 -5 -9 -27 -9
-43 0 -68 8 -68 22 0 12 80 1 95 -13z m-799 -11 c-10 -6 -20 -7 -24 -3 -9 8
20 25 31 18 5 -3 2 -10 -7 -15z m-45 -7 c17 -10 26 -22 21 -25 -6 -3 -23 5
-39 19 -33 29 -25 32 18 6z m963 9 c-5 -5 -27 -16 -49 -24 -30 -12 -34 -15
-15 -14 14 1 36 0 50 -1 23 -1 24 -2 6 -13 -13 -7 -29 -7 -59 2 l-40 12 29 20
c17 12 21 17 9 13 -39 -14 -61 -16 -33 -2 32 15 116 21 102 7z m-1096 -16 c24
-12 36 -13 54 -4 22 11 22 10 4 -4 -14 -11 -15 -16 -6 -16 10 0 11 -3 4 -10
-12 -12 -47 -2 -38 11 3 5 -1 7 -8 4 -7 -3 -24 4 -38 15 -30 24 -15 26 28 4z
m962 -10 l25 -13 -26 -1 c-36 0 -90 20 -83 31 6 11 48 2 84 -17z m-744 -34 c7
0 11 -6 8 -14 -3 -8 2 -29 11 -46 9 -18 15 -34 12 -36 -2 -2 -12 14 -22 36
-12 26 -23 39 -32 35 -36 -14 -45 -15 -20 0 22 13 25 19 17 35 -5 10 -10 22
-9 27 0 4 5 -2 11 -14 6 -13 17 -23 24 -23z m439 -10 c7 -24 7 -24 -9 -5 -8
11 -16 27 -16 35 0 20 16 1 25 -30z m-641 -1 c-8 -13 3 -11 39 6 25 13 28 13
14 1 -13 -10 -14 -15 -6 -18 9 -3 7 -7 -5 -11 -11 -5 -15 -3 -10 5 5 8 2 9
-10 5 -17 -7 -66 18 -66 34 0 5 11 4 25 -3 13 -6 22 -15 19 -19z m136 -9 c-16
-10 -50 9 -50 28 0 9 8 9 31 -4 23 -12 28 -18 19 -24z m800 13 c13 -14 13 -15
-7 -9 -72 19 -71 19 -44 -4 13 -11 30 -19 37 -16 8 3 25 -1 39 -8 l26 -14 -24
-6 c-52 -13 -122 41 -100 77 7 12 54 -1 73 -20z m-327 -24 c15 -7 26 -17 25
-21 -2 -5 -6 -8 -10 -6 -7 4 -48 -32 -48 -43 0 -4 8 -9 18 -11 28 -6 -45 -71
-75 -65 -12 2 -20 0 -17 -4 3 -5 12 -9 20 -9 8 0 14 -4 14 -10 0 -14 0 -17 10
-49 8 -29 7 -30 -35 -36 -40 -7 -85 6 -85 23 0 4 7 39 15 77 18 86 18 98 3 90
-7 -3 -3 2 10 11 12 9 22 24 22 33 0 9 12 23 28 32 28 16 51 14 105 -12z m390
24 c-7 -2 -21 -2 -30 0 -10 3 -4 5 12 5 17 0 24 -2 18 -5z m-745 -10 c0 -5 2
-16 7 -26 4 -10 5 -20 2 -24 -3 -3 0 -12 8 -20 18 -18 20 -36 3 -31 -15 5 -46
58 -47 80 -1 14 6 21 27 27 1 1 1 -2 0 -6z m-143 -33 c3 -5 1 -10 -4 -10 -6 0
-11 5 -11 10 0 6 2 10 4 10 3 0 8 -4 11 -10z m80 0 c3 -5 -1 -10 -10 -10 -9 0
-13 5 -10 10 3 6 8 10 10 10 2 0 7 -4 10 -10z m-170 -10 c17 0 17 -2 5 -10
-21 -14 -33 -12 -56 6 -18 15 -18 15 6 10 14 -3 34 -6 45 -6z m890 -24 c24
-19 9 -21 -28 -3 -15 6 -27 18 -27 25 0 14 18 7 55 -22z m145 3 c11 -6 9 -8
-10 -9 -42 0 -74 11 -58 21 13 9 40 4 68 -12z m-860 -20 c21 -6 19 -7 -15 -8
-48 -1 -85 8 -85 21 0 9 49 3 100 -13z m430 17 c0 -11 -19 -15 -25 -6 -3 5 1
10 9 10 9 0 16 -2 16 -4z m20 -31 c-7 -9 -15 -13 -18 -10 -3 2 1 11 8 20 7 9
15 13 18 10 3 -2 -1 -11 -8 -20z m270 -27 c0 -4 -6 -8 -13 -8 -17 0 -59 44
-51 53 7 7 64 -33 64 -45z m98 24 c12 -8 21 -16 19 -18 -7 -7 -67 18 -67 28 0
5 -5 6 -12 2 -7 -4 -8 -3 -4 4 7 12 28 7 64 -16z m-746 -23 c-30 -11 -28 -23
3 -15 31 8 33 -9 3 -19 -14 -4 -18 -8 -10 -12 6 -2 10 -8 7 -13 -3 -4 5 -6 17
-4 22 4 22 4 2 -5 -26 -11 -74 -68 -74 -86 0 -13 -29 -35 -44 -35 -11 0 -6 31
14 87 11 32 20 58 20 58 0 0 -18 -1 -40 -3 -25 -3 -40 0 -40 7 0 7 17 11 47 9
32 -2 48 1 51 11 4 11 -4 13 -37 7 -24 -3 -41 -2 -41 3 0 5 -10 12 -22 15 -22
5 79 -1 105 -7 7 -1 11 3 10 9 -1 7 8 9 24 6 26 -5 26 -5 5 -13z m152 -47 c-5
-6 -53 32 -59 47 -3 7 10 0 28 -15 19 -16 33 -31 31 -32z m471 18 c32 -34 29
-36 -20 -16 -34 15 -42 26 -28 39 11 12 18 8 48 -23z m-537 -43 c10 -8 9 -14
-4 -28 -21 -23 -30 -24 -38 -3 -5 12 -2 15 11 10 15 -6 16 -5 6 5 -7 7 -13 19
-13 27 0 13 11 10 38 -11z m516 1 c21 -30 11 -36 -17 -10 -13 12 -27 19 -32
15 -4 -5 -5 -2 -1 5 11 19 33 14 50 -10z m132 -9 c21 -24 17 -24 -36 0 -23 10
-36 21 -28 23 20 7 45 -2 64 -23z m-597 -11 c-11 -41 -11 -47 1 -28 8 13 10
13 10 -1 0 -9 15 -33 33 -54 29 -34 35 -37 53 -26 18 12 18 12 0 7 -17 -6 -56
17 -56 33 0 3 32 6 70 6 71 -1 74 1 70 40 -3 28 15 8 29 -34 13 -41 -2 -57
-66 -67 -76 -11 -180 23 -203 67 -10 17 -6 25 25 55 20 19 38 34 40 34 2 0 -1
-15 -6 -32z m551 1 c12 -8 9 -9 -10 -4 -22 6 -21 4 8 -14 41 -27 42 -47 1 -25
-29 15 -33 15 -48 -2 -9 -9 -11 -14 -4 -10 6 3 23 -8 37 -25 40 -48 31 -55
-16 -13 -24 21 -43 42 -43 45 0 17 -17 22 -26 9 -8 -13 -13 -11 -30 9 -17 20
-22 22 -29 11 -6 -10 -3 -21 10 -35 24 -26 25 -35 5 -35 -9 0 -19 8 -22 18 -4
9 -11 20 -16 23 -6 4 -1 16 11 29 18 19 23 20 44 9 12 -7 30 -14 38 -15 8 0
22 -3 30 -5 8 -2 14 1 15 6 1 14 15 35 23 35 4 0 14 -5 22 -11z m-660 -60 c0
-3 -8 -13 -17 -20 -15 -13 -16 -12 -11 8 4 13 1 26 -4 30 -7 4 -8 1 -3 -7 5
-9 4 -11 -4 -6 -9 6 -9 11 0 23 11 13 14 13 26 -3 7 -10 13 -21 13 -25z m65
-57 c5 1 10 -11 11 -27 1 -17 11 -50 23 -74 13 -24 21 -45 18 -47 -3 -4 -108
215 -115 240 -1 6 10 -13 26 -42 15 -30 32 -52 37 -50z m-208 75 c7 0 11 -3 9
-6 -2 -3 -34 -4 -72 -3 -45 3 -63 7 -53 13 8 5 34 6 59 2 25 -3 50 -6 57 -6z
m536 -16 c52 -36 84 -70 136 -145 45 -65 49 -76 26 -76 -8 0 -14 4 -12 9 2 7
-22 29 -112 101 -17 14 -31 30 -31 37 0 7 -4 13 -10 13 -5 0 -10 7 -10 15 0 8
-4 15 -10 15 -5 0 -7 -7 -4 -15 11 -27 -5 -16 -21 15 -19 37 -19 50 0 24 17
-22 20 -12 5 17 -14 26 -6 24 43 -10z m94 -27 c13 -14 20 -30 17 -36 -4 -6 1
-8 14 -4 17 6 26 -1 46 -31 24 -37 44 -93 33 -93 -3 0 -20 21 -38 48 -17 26
-49 62 -70 80 -22 19 -37 37 -34 42 3 5 -1 11 -7 13 -10 4 -9 6 1 6 7 1 24
-11 38 -25z m112 -19 c13 -11 21 -14 17 -7 -4 6 -3 12 2 12 6 0 10 -10 10 -22
0 -13 3 -34 7 -47 7 -21 6 -22 -13 -12 -15 8 -21 8 -24 -1 -3 -7 -7 -5 -11 6
-4 10 -3 15 3 11 20 -12 9 12 -15 35 -13 12 -22 27 -19 32 3 5 0 17 -8 26 -12
16 -11 16 7 2 11 -8 31 -23 44 -35z m-670 3 c-12 -23 -12 -23 9 -5 20 18 20
18 15 -2 -5 -21 -69 -82 -105 -102 -15 -8 -17 -5 -14 23 3 22 15 41 37 60 19
15 41 34 49 41 21 19 24 13 9 -15z m-109 12 c11 -7 3 -10 -30 -10 -33 0 -41 3
-30 10 8 5 22 10 30 10 8 0 22 -5 30 -10z m24 -48 c-24 -36 -30 -12 -8 30 14
26 19 29 22 15 2 -10 -4 -30 -14 -45z m184 13 c12 -25 22 -57 22 -71 0 -15 4
-23 10 -19 7 4 9 -2 4 -19 -3 -14 -1 -47 5 -73 6 -26 17 -76 24 -110 l14 -62
-28 21 c-15 12 -30 27 -33 35 -3 7 -10 13 -16 13 -6 0 -8 -4 -5 -10 10 -16 -1
-11 -16 7 -10 11 -10 14 -1 9 13 -8 17 15 5 28 -8 8 -13 27 -19 81 -3 29 -2
36 6 25 13 -20 13 -4 0 21 -15 27 5 25 24 -3 9 -12 16 -19 16 -14 0 4 -8 20
-19 34 -14 20 -18 41 -16 80 2 43 0 50 -11 41 -15 -13 -17 -9 -8 15 10 25 18
19 42 -29z m327 -52 c4 -38 8 -92 10 -121 4 -60 13 -81 26 -61 6 10 9 3 9 -20
0 -40 -34 -89 -91 -131 -25 -17 -35 -30 -27 -33 10 -4 10 -6 0 -6 -12 -1 -52
55 -52 73 0 5 17 6 38 3 24 -4 32 -3 23 3 -11 6 -5 13 27 26 50 20 69 47 54
78 -6 11 -21 57 -33 101 -26 98 -38 123 -37 78 1 -18 4 -33 9 -33 4 0 5 -10 1
-22 -4 -15 -2 -19 7 -13 10 5 11 2 6 -14 -3 -11 -2 -21 3 -21 6 0 8 -10 4 -22
-3 -14 -1 -19 6 -14 7 4 13 -10 18 -40 5 -34 3 -48 -7 -55 -29 -18 -36 -8 -43
59 -4 37 -12 96 -18 132 -10 57 -12 62 -21 42 -8 -17 -7 -26 1 -31 7 -4 10
-21 8 -39 -2 -20 1 -29 7 -25 7 4 8 -12 4 -48 -4 -36 -3 -49 3 -39 7 11 10 4
10 -27 0 -33 -5 -45 -21 -53 -27 -15 -73 -4 -65 15 3 8 2 15 -3 15 -5 0 -12
17 -16 37 -6 33 -8 36 -19 21 -11 -15 -15 -12 -34 28 -30 60 -27 70 3 14 36
-68 30 -32 -10 56 -22 48 -33 85 -30 98 5 15 4 17 -3 7 -12 -16 -25 1 -17 22
5 12 13 12 58 0 28 -7 64 -13 80 -13 16 0 26 -4 22 -10 -3 -6 1 -7 9 -4 9 3
16 11 16 18 0 6 5 4 10 -4 5 -8 10 -12 11 -7 1 4 2 10 3 15 3 18 19 32 35 32
15 0 20 -12 26 -67z m-414 -65 c-26 -25 -35 -28 -57 -21 -15 5 -28 17 -30 26
-1 9 2 14 7 11 14 -8 40 16 32 29 -3 5 -2 7 4 4 11 -7 45 27 59 58 7 16 9 9
12 -29 3 -43 0 -52 -27 -78z m512 21 c-3 -9 62 -59 76 -59 11 0 30 -31 36 -58
17 -78 17 -82 4 -82 -8 0 -6 -6 7 -16 18 -15 18 -15 -6 -10 -14 2 -46 8 -72
11 -41 6 -48 11 -48 30 0 23 22 47 53 58 18 7 24 27 7 27 -5 0 -10 -4 -10 -8
0 -5 -15 -16 -34 -25 -38 -18 -48 -10 -39 34 3 19 0 26 -12 26 -12 0 -15 -6
-11 -26 5 -18 4 -21 -3 -11 -15 24 -42 175 -35 193 5 14 14 8 48 -30 22 -26
40 -50 39 -54z m-466 29 c-2 -13 -4 -5 -4 17 -1 22 1 32 4 23 2 -10 2 -28 0
-40z m-10 -125 c-2 -16 -4 -3 -4 27 0 30 2 43 4 28 2 -16 2 -40 0 -55z m-20
11 l2 -56 -22 18 c-12 11 -24 20 -26 21 -2 1 2 10 10 20 12 15 12 16 -6 10
-14 -5 -11 1 10 18 17 14 30 25 30 25 0 0 1 -25 2 -56z m120 34 c-3 -8 -6 -5
-6 6 -1 11 2 17 5 13 3 -3 4 -12 1 -19z m-197 -59 c0 -5 4 -9 9 -9 6 0 8 -9 6
-19 -2 -11 3 -22 12 -25 13 -5 13 -9 2 -23 -8 -9 -9 -14 -3 -10 15 9 26 -71
14 -93 -8 -13 -9 -12 -10 4 0 14 -3 16 -14 7 -11 -9 -12 -6 -8 16 4 24 3 26
-9 16 -12 -10 -17 -8 -28 9 -9 14 -9 18 0 13 7 -5 10 -3 7 6 -3 8 -10 13 -16
12 -7 -2 -9 4 -5 14 4 9 2 14 -3 10 -12 -7 -18 63 -9 105 l7 29 24 -26 c13
-14 24 -30 24 -36z m260 -40 c0 -5 12 -32 26 -60 14 -28 23 -53 21 -56 -3 -2
-22 16 -42 41 -28 34 -36 53 -33 71 3 14 1 25 -3 25 -5 0 -9 12 -9 28 l0 27
20 -33 c11 -18 20 -37 20 -43z m59 -74 c0 -5 -6 1 -14 15 -8 14 -14 30 -14 35
0 6 6 -1 14 -15 8 -14 14 -29 14 -35z m236 25 c3 -6 -1 -7 -9 -4 -18 7 -21 14
-7 14 6 0 13 -4 16 -10z m-227 -116 c-4 -3 -22 4 -40 17 -31 21 -32 21 -15 2
10 -12 32 -27 48 -33 37 -16 38 -32 0 -19 -42 15 -73 47 -66 69 3 10 1 21 -5
25 -5 3 -10 14 -10 23 0 11 15 2 47 -30 26 -26 44 -50 41 -54z m225 89 c-23
-4 -28 -18 -39 -99 -7 -58 -7 -58 78 -69 l55 -7 12 62 c7 34 10 64 7 67 -2 3
-10 -23 -17 -57 l-12 -62 -46 7 c-25 4 -50 9 -55 12 -8 5 -1 121 8 131 2 2 32
0 65 -6 34 -5 62 -5 63 0 3 9 122 -13 171 -31 19 -7 27 -18 27 -33 -1 -37 -46
-155 -80 -209 -29 -45 -144 -159 -160 -159 -4 0 -17 12 -31 27 -13 14 -19 23
-12 19 6 -3 14 1 17 11 8 31 28 164 25 167 -2 2 -28 6 -58 9 l-54 6 6 -35 c3
-19 17 -60 31 -92 14 -31 19 -48 11 -38 -36 47 -58 130 -59 221 -1 50 3 107 7
128 7 32 11 37 35 36 22 -1 23 -2 5 -6z m85 -10 c-10 -2 -26 -2 -35 0 -10 3
-2 5 17 5 19 0 27 -2 18 -5z m-612 -132 c-9 -12 -8 -13 4 -6 8 4 -4 -9 -28
-30 -26 -23 -41 -43 -38 -52 3 -8 1 -11 -4 -8 -6 4 -10 55 -10 117 l0 110 44
-58 c34 -46 41 -62 32 -73z m179 86 c1 -12 6 -21 13 -19 16 3 15 -9 -4 -36 -8
-12 -12 -27 -9 -32 3 -6 4 -10 0 -10 -7 0 -23 42 -34 90 -7 33 -6 38 7 33 11
-5 13 -2 7 8 -7 12 -6 12 6 1 8 -7 14 -23 14 -35z m144 -12 c0 -5 -6 1 -14 15
-8 14 -14 30 -14 35 0 6 6 -1 14 -15 8 -14 14 -29 14 -35z m114 15 c-48 -45
-46 -52 3 -15 l34 26 -10 -26 c-6 -15 -8 -30 -5 -35 3 -4 -11 -22 -30 -39 -39
-34 -32 -52 9 -20 l26 20 0 -35 c0 -20 -5 -36 -11 -36 -5 0 -7 5 -4 10 4 7 -2
9 -19 4 -21 -5 -28 -1 -38 21 -10 22 -9 28 3 37 11 8 11 9 -3 5 -20 -7 -32 19
-12 27 8 3 13 9 12 13 -3 8 72 82 82 82 3 0 -14 -17 -37 -39z m-74 -105 c0 -5
-8 6 -19 25 -11 19 -19 40 -19 45 0 6 8 -6 19 -25 11 -19 19 -39 19 -45z
m-187 -185 c11 -219 3 -390 -18 -390 -16 0 -19 -16 -4 -25 6 -4 9 -33 6 -73
-3 -37 -3 -57 0 -44 7 30 29 22 27 -10 -4 -61 -25 -110 -54 -126 -37 -22 -37
-28 4 -26 44 2 67 13 60 30 -8 20 1 18 51 -17 47 -31 58 -43 31 -33 -25 10
-17 -3 16 -26 44 -32 45 -19 3 35 -32 43 -33 46 -9 27 66 -52 60 -12 -7 52
-54 51 -50 53 12 6 72 -55 83 -45 24 20 -33 36 -65 56 -49 30 8 -13 2 -13 -29
1 -14 7 -27 18 -31 27 -4 12 -1 11 21 -3 14 -9 28 -15 30 -12 3 3 -11 15 -31
27 -20 12 -34 24 -31 27 5 5 67 -34 120 -76 41 -32 61 -40 53 -18 -2 6 -9 11
-14 10 -6 -1 -25 15 -44 35 l-34 37 38 -34 c20 -19 37 -30 37 -25 0 18 -72 80
-77 67 -4 -10 -12 -9 -34 3 -16 8 -27 19 -23 25 4 7 12 5 23 -5 29 -26 36 -18
10 11 -23 25 -22 25 21 -5 59 -40 169 -152 150 -152 -8 0 -23 -17 -33 -36 -22
-45 -34 -124 -19 -124 6 0 9 7 6 15 -4 8 -1 15 6 15 10 0 10 3 0 15 -10 12 -9
15 4 15 14 0 15 3 5 23 -11 21 -11 21 6 7 16 -14 17 -13 11 8 -4 13 -3 22 3
22 6 0 8 7 5 15 -4 10 0 15 10 15 13 0 16 -8 14 -34 -1 -19 -6 -32 -10 -30 -8
5 -12 -10 -9 -35 2 -7 -2 -10 -8 -7 -5 4 -12 -2 -14 -11 -8 -31 -5 -123 4
-129 5 -3 9 -15 9 -26 0 -12 3 -18 8 -14 4 4 7 13 7 18 0 18 19 19 40 3 19
-16 19 -16 -2 -6 -29 15 -32 14 -29 -6 2 -14 17 -19 72 -25 123 -13 200 -25
169 -27 -30 -2 -30 -2 -6 -12 l25 -10 -24 -16 c-22 -16 -24 -15 -38 5 -11 16
-24 22 -51 21 l-36 -2 35 -7 c43 -9 39 -11 -26 -15 -28 -1 -57 -6 -64 -10 -9
-6 -11 -4 -5 5 6 10 -1 11 -31 6 -21 -4 -47 -10 -58 -13 -13 -3 -17 -1 -14 8
3 8 1 24 -3 36 -6 15 -4 23 6 25 10 2 8 10 -9 29 l-23 26 2 -31 c1 -18 7 -41
13 -52 9 -16 6 -21 -15 -31 -24 -12 -25 -11 -9 6 22 24 21 28 -11 45 -17 9
-22 16 -13 16 10 1 9 4 -5 10 l-20 9 20 1 c17 1 16 3 -7 16 -34 18 -36 24 -5
17 20 -4 19 -2 -8 22 l-30 26 28 -7 c31 -7 34 1 10 29 -17 19 -17 19 5 12 21
-6 22 -5 14 12 -6 10 -24 31 -41 47 -17 16 -28 32 -26 36 5 9 -25 23 -32 16
-3 -2 15 -26 39 -52 l43 -48 -37 23 c-42 25 -49 19 -17 -15 18 -19 18 -22 4
-28 -10 -4 -14 -2 -9 5 4 7 0 9 -14 5 -15 -5 -24 -1 -32 14 -6 11 -15 18 -20
15 -4 -3 -19 -1 -32 4 -13 6 -16 10 -8 11 13 1 13 2 0 9 -29 16 -63 24 -56 12
4 -6 2 -11 -3 -11 -6 0 -11 16 -11 35 0 35 16 58 56 81 18 11 18 11 -1 30 -16
16 -18 16 -12 2 4 -11 -5 -29 -26 -51 -48 -52 -59 -67 -47 -67 15 0 12 -40 -2
-41 -10 0 -10 -2 0 -6 6 -2 12 -13 12 -24 0 -19 -1 -19 -39 3 l-40 23 27 17
c15 10 27 21 27 25 1 5 13 32 28 60 54 104 90 364 91 648 1 110 -2 214 -7 230
l-7 30 16 -30 c13 -22 19 -75 26 -215z m83 220 c-3 -5 19 -25 50 -44 30 -20
55 -38 55 -41 0 -10 -115 2 -138 14 -35 19 -26 23 11 5 l32 -16 -28 24 -28 23
21 23 c21 22 36 30 25 12z m83 -39 c6 -18 -11 -12 -43 14 l-30 25 35 -14 c19
-8 36 -19 38 -25z m-322 -101 l5 -83 -36 37 c-19 20 -35 42 -35 48 0 14 51 90
57 85 2 -3 6 -41 9 -87z m373 35 c0 -5 -6 1 -14 15 -8 14 -14 30 -14 35 0 6 6
-1 14 -15 8 -14 14 -29 14 -35z m-409 42 c0 -2 -10 -12 -22 -23 l-23 -19 19
23 c18 21 26 27 26 19z m363 -143 c15 -8 37 -12 48 -9 18 6 19 4 10 -12 -5
-11 -17 -25 -25 -33 -9 -7 -16 -21 -16 -31 0 -10 -4 -21 -10 -24 -5 -3 -14
-14 -20 -24 -7 -14 -4 -23 13 -37 15 -13 18 -14 9 -3 -11 14 -9 17 11 21 24 5
47 -12 47 -34 0 -9 -3 -9 -11 2 -10 15 -5 -37 8 -84 4 -14 1 -18 -11 -13 -17
7 -23 -8 -7 -17 14 -9 28 15 51 92 12 39 24 72 26 72 2 0 1 -33 -2 -73 -8 -91
5 -329 17 -321 5 3 10 69 10 147 2 182 15 118 22 -103 2 -85 1 -123 -3 -85
l-6 70 -2 -84 c-2 -73 1 -88 19 -107 l20 -21 -38 -20 c-21 -12 -37 -27 -37
-36 1 -9 -10 -26 -25 -39 l-26 -23 25 29 c19 22 21 28 8 23 -23 -8 -22 -4 2
41 28 54 33 71 34 130 1 38 -2 51 -11 47 -9 -3 -13 9 -14 43 0 26 -5 56 -10
67 -11 23 -4 -124 7 -165 7 -23 4 -22 -31 12 l-39 36 18 73 c17 71 33 200 18
149 -4 -14 -13 -25 -21 -25 -23 0 -112 186 -156 324 -22 68 -41 117 -43 109
-1 -8 13 -65 33 -127 19 -62 35 -129 36 -149 1 -32 2 -34 8 -12 4 14 7 -39 7
-116 l-1 -142 -27 20 c-16 11 -28 24 -28 29 0 5 -8 9 -17 9 -17 0 -18 20 -19
274 l0 274 60 -55 c34 -30 74 -61 89 -69z m219 91 c24 -6 26 -10 21 -43 -8
-54 -26 -67 -21 -16 2 32 0 40 -10 36 -8 -3 -18 1 -23 9 -6 10 -9 8 -9 -10 0
-30 -5 -25 -14 12 -6 24 -4 28 11 23 10 -3 30 -8 45 -11z m-254 -13 c12 -7 22
-10 22 -7 0 3 14 -1 30 -10 35 -18 38 -30 11 -44 -15 -8 -27 -4 -57 18 -22 15
-45 35 -52 43 -10 13 -9 15 5 14 10 -1 28 -7 41 -14z m111 -47 c0 -5 -6 1 -14
15 -8 14 -14 30 -14 35 0 6 6 -1 14 -15 8 -14 14 -29 14 -35z m131 -15 c0 -22
5 -40 10 -40 6 0 10 -4 10 -10 0 -21 -17 -8 -33 25 -20 42 -21 49 -5 39 8 -5
9 -2 5 9 -3 10 -2 17 3 17 6 0 10 -18 10 -40z m-70 -47 c-11 -17 -11 -17 -6 0
3 10 7 28 7 40 2 22 2 22 6 0 2 -12 -1 -30 -7 -40z m-31 -8 c0 -5 -6 1 -14 15
-8 14 -14 30 -14 35 0 6 6 -1 14 -15 8 -14 14 -29 14 -35z m-458 28 c12 -14
12 -16 0 -8 -11 6 -13 4 -6 -11 15 -36 17 -62 6 -68 -6 -4 -12 -17 -12 -29 -1
-17 -3 -15 -9 8 -14 55 -11 125 5 125 2 0 9 -8 16 -17z m559 -88 c0 -1 -7 -8
-15 -15 -13 -10 -15 -9 -15 8 0 15 5 20 15 16 8 -4 15 -7 15 -9z m-127 -9 c4
-10 1 -13 -8 -9 -8 3 -12 9 -9 14 7 12 11 11 17 -5z m67 -21 c0 -5 -5 -3 -10
5 -5 8 -10 20 -10 25 0 6 5 3 10 -5 5 -8 10 -19 10 -25z m72 -52 c2 -23 0 -39
-4 -35 -9 9 -12 37 -8 77 3 35 8 19 12 -42z m-532 15 c0 -17 -3 -18 -14 -8 -8
6 -12 18 -9 26 7 19 23 7 23 -18z m396 -43 c-9 -31 -15 -41 -15 -26 -1 29 23
112 26 91 2 -8 -3 -37 -11 -65z m-425 28 c13 -16 12 -17 -3 -4 -10 7 -18 15
-18 17 0 8 8 3 21 -13z m568 -118 c0 -5 -8 6 -19 25 -11 19 -19 40 -19 45 0 6
8 -6 19 -25 11 -19 19 -39 19 -45z m-240 -65 c6 -47 11 -102 11 -124 0 -35 -2
-38 -14 -26 -10 11 -16 53 -21 140 -7 142 7 148 24 10z m-411 8 c5 -24 11 -49
13 -56 2 -8 -6 -21 -19 -29 -22 -16 -22 -15 -12 11 5 14 7 46 3 71 -7 57 2 59
15 3z m681 -13 c0 -5 -6 1 -14 15 -8 14 -14 30 -14 35 0 6 6 -1 14 -15 8 -14
14 -29 14 -35z m-234 6 c9 -18 12 -30 6 -27 -6 4 -11 3 -11 -3 0 -20 24 -23
38 -5 13 17 14 15 9 -26 -10 -71 -31 -131 -43 -122 -6 4 -14 55 -17 116 -4 60
-5 107 -3 105 2 -2 11 -19 21 -38z m-410 -21 c3 -6 -1 -7 -9 -4 -18 7 -21 14
-7 14 6 0 13 -4 16 -10z m665 -35 c0 -5 -5 -3 -10 5 -5 8 -10 20 -10 25 0 6 5
3 10 -5 5 -8 10 -19 10 -25z m105 -13 c0 -9 6 -16 13 -14 8 1 11 -2 7 -7 -3
-6 3 -19 15 -31 25 -25 25 -32 0 -48 -14 -9 -20 -23 -20 -50 l1 -37 15 28 c10
18 21 26 30 23 15 -6 31 35 19 53 -3 6 -1 11 4 11 6 0 11 -16 11 -36 0 -20 4
-33 10 -29 5 3 18 -8 29 -25 15 -26 17 -37 8 -60 -6 -16 -15 -28 -21 -27 -5 1
-13 -9 -17 -23 -4 -15 -7 -18 -8 -8 -1 9 -8 24 -17 33 -14 13 -19 14 -25 3 -6
-9 -9 -10 -9 -1 0 7 -13 19 -29 27 -26 14 -30 14 -35 1 -3 -8 -9 -15 -14 -15
-14 0 -1 54 14 63 8 4 14 13 14 18 0 6 -4 8 -9 5 -5 -4 -7 11 -4 32 4 27 0 43
-11 54 -19 19 -20 36 -6 74 8 21 13 25 23 15 6 -6 12 -19 12 -29z m-121 -33
c-2 -3 -5 -27 -8 -53 -4 -46 -3 -49 30 -68 26 -16 34 -27 34 -49 0 -33 -25
-89 -39 -89 -5 0 -16 -3 -25 -6 -14 -5 -16 13 -15 162 1 149 2 165 14 139 7
-16 11 -33 9 -36z m-404 -15 c0 -8 -4 -14 -10 -14 -5 0 -10 9 -10 21 0 11 5
17 10 14 6 -3 10 -13 10 -21z m459 -29 c0 -5 -6 1 -14 15 -8 14 -14 30 -14 35
0 6 6 -1 14 -15 8 -14 14 -29 14 -35z m3 -56 c18 -12 5 -11 -26 1 -26 10 -32
31 -20 65 5 13 10 8 20 -21 7 -20 19 -41 26 -45z m12 25 c3 -8 2 -12 -4 -9 -6
3 -10 10 -10 16 0 14 7 11 14 -7z m-106 -71 c-1 -65 -2 -70 -7 -33 -6 44 -3
110 5 110 2 0 3 -35 2 -77z m-613 55 c15 -14 23 -68 12 -74 -7 -4 -9 -4 -5 1
4 4 0 14 -8 22 -9 9 -12 24 -9 37 6 21 6 21 -9 2 -10 -12 -16 -15 -16 -7 0 11
-3 11 -17 0 -15 -12 -16 -12 -8 1 5 8 -10 0 -33 -18 -23 -19 -39 -38 -36 -44
4 -6 1 -9 -6 -6 -8 2 -16 10 -18 18 -3 7 0 10 7 6 10 -7 13 -3 15 26 2 29 109
58 131 36z m-28 -86 c-13 -13 -19 -13 -32 -2 -23 19 0 44 27 29 18 -10 19 -12
5 -27z m273 8 c0 -5 5 -10 11 -10 5 0 7 5 4 10 -9 15 17 11 39 -5 26 -19 15
-29 -23 -20 -30 6 -65 35 -42 35 6 0 11 -4 11 -10z m-315 -19 c3 -5 2 -12 -3
-15 -5 -3 -9 1 -9 9 0 17 3 19 12 6z m825 -30 c-10 -19 -7 -25 13 -22 4 0 7
-5 8 -11 1 -7 5 -2 9 12 7 21 8 22 9 5 1 -12 -5 -27 -11 -34 -11 -12 -9 -13 7
-7 11 4 16 4 13 0 -4 -4 -2 -16 4 -28 11 -21 11 -21 -11 -2 -11 11 -24 16 -29
12 -4 -4 2 -14 12 -22 14 -10 17 -17 10 -24 -13 -13 -30 4 -35 34 -3 13 -8 5
-15 -22 -6 -23 -7 -39 -3 -36 5 3 9 12 9 20 0 8 5 12 10 9 6 -3 10 -15 10 -26
0 -11 -4 -17 -10 -14 -5 3 -10 -3 -10 -14 0 -11 -5 -23 -12 -27 -7 -4 -8 -3
-4 4 4 7 4 18 -1 25 -13 22 -3 160 14 180 20 22 28 15 13 -12z m-540 -11 c0
-5 -2 -10 -4 -10 -3 0 -8 5 -11 10 -3 6 -1 10 4 10 6 0 11 -4 11 -10z m-338
-76 c34 -36 44 -41 79 -39 22 1 42 -1 44 -6 10 -15 -7 -37 -26 -34 -10 2 -19
0 -19 -4 0 -16 -30 -7 -36 11 -3 10 -9 16 -14 13 -4 -3 -11 2 -14 11 -3 9 -11
12 -18 8 -7 -4 -10 -4 -6 1 4 4 -1 15 -12 24 -10 9 -21 32 -24 51 -3 19 -3 28
0 20 4 -8 24 -33 46 -56z m835 -12 c-3 -10 -6 -3 -7 13 -1 22 -5 12 -15 -34
-8 -35 -11 -69 -8 -75 4 -6 -2 -4 -12 4 -17 14 -18 14 -6 -9 10 -17 10 -26 1
-35 -8 -8 -9 -6 -4 8 6 15 4 17 -6 11 -9 -5 -11 -4 -6 3 4 7 2 12 -3 12 -6 0
-11 7 -11 15 0 8 8 15 18 15 10 0 13 3 7 8 -14 9 -36 82 -29 94 3 4 14 8 24 8
11 0 25 10 31 23 12 22 13 21 21 -11 5 -19 7 -41 5 -50z m-137 41 c-8 -3 -24
-13 -35 -22 -20 -16 -20 -16 -1 7 11 12 26 22 35 21 14 0 14 -1 1 -6z m-650
-28 c0 -9 -6 -12 -15 -9 -8 4 -15 10 -15 15 0 5 7 9 15 9 8 0 15 -7 15 -15z
m686 0 c18 -15 18 -15 0 -8 -13 4 -17 3 -13 -4 5 -7 -1 -9 -15 -6 -20 4 -19 2
5 -12 33 -19 35 -29 5 -20 -22 6 -22 6 2 -14 31 -26 24 -26 -34 -1 -50 21 -52
35 -8 63 33 20 34 20 58 2z m-641 -15 c-3 -5 -11 -10 -16 -10 -6 0 -7 5 -4 10
3 6 11 10 16 10 6 0 7 -4 4 -10z m225 -15 c17 -9 30 -17 30 -18 0 -2 -18 -21
-41 -42 -22 -22 -37 -32 -34 -22 4 10 2 17 -4 17 -9 0 -9 5 -1 21 7 11 9 23 6
26 -3 3 -9 -2 -13 -12 -6 -18 -7 -18 -13 1 -16 44 16 57 70 29z m507 -27 c-3
-8 -6 -5 -6 6 -1 11 2 17 5 13 3 -3 4 -12 1 -19z m-622 -36 c-4 -12 -3 -13 10
-2 12 10 15 10 15 -2 0 -8 9 -23 20 -33 11 -10 20 -15 20 -10 0 4 8 1 17 -6
15 -12 16 -12 10 3 -4 13 -1 16 14 13 16 -3 19 0 14 18 -5 17 -4 19 4 7 10
-13 11 -13 11 0 0 13 1 13 10 0 5 -8 10 -19 10 -25 0 -5 -5 -3 -10 5 -8 12
-10 10 -8 -9 3 -23 0 -25 -45 -26 -33 -1 -53 4 -67 17 -11 10 -20 16 -20 12 0
-3 -6 -1 -14 5 -7 6 -24 12 -38 13 -29 2 -30 19 -4 49 17 20 18 20 37 3 11
-10 17 -24 14 -32z m252 22 c-3 -3 -12 -4 -19 -1 -8 3 -5 6 6 6 11 1 17 -2 13
-5z m-42 -94 c2 -24 0 -38 -6 -35 -5 4 -9 0 -10 -7 0 -10 -2 -10 -6 1 -5 11
-7 11 -14 0 -7 -11 -9 -11 -9 -1 0 7 -4 10 -10 7 -6 -4 -7 1 -3 11 4 12 3 15
-6 10 -8 -5 -7 3 4 23 9 18 13 42 10 54 -4 16 -3 18 3 7 17 -27 25 -63 13 -56
-7 5 -8 1 -4 -10 4 -12 3 -15 -5 -10 -8 5 -10 2 -5 -9 5 -13 7 -14 14 -3 7 10
9 10 9 -2 1 -12 3 -11 11 2 6 11 6 25 1 35 -5 10 -12 32 -16 48 l-6 30 15 -28
c9 -15 17 -45 20 -67z m226 77 c-1 -4 -1 -14 -1 -22 0 -20 -39 -19 -47 0 -9
25 7 32 24 10 15 -19 15 -19 8 4 -5 16 -3 22 5 19 6 -2 11 -7 11 -11z m37 -4
c-2 -9 -8 -18 -15 -20 -7 -3 -9 3 -6 16 6 25 26 28 21 4z m-248 -30 c0 -32 -5
-28 -14 10 -4 19 -3 26 4 22 5 -3 10 -18 10 -32z m273 12 c-3 -8 -9 -15 -14
-15 -4 0 -6 -6 -3 -14 3 -8 1 -17 -5 -21 -7 -3 -8 0 -5 9 4 11 0 16 -12 17
-16 0 -15 2 4 9 12 5 22 17 22 25 0 9 4 14 10 10 5 -3 7 -12 3 -20z m-588 -5
c-3 -5 -11 -10 -16 -10 -6 0 -7 5 -4 10 3 6 11 10 16 10 6 0 7 -4 4 -10z m469
-6 c3 -8 2 -12 -4 -9 -6 3 -10 10 -10 16 0 14 7 11 14 -7z m170 8 c2 -4 1 -13
-3 -20 -4 -8 -11 -5 -19 8 -10 16 -10 20 2 20 8 0 17 -4 20 -8z m86 -6 c0 -3
-4 -8 -10 -11 -5 -3 -10 -1 -10 4 0 6 5 11 10 11 6 0 10 -2 10 -4z m-783 -32
c-3 -3 -12 -4 -19 -1 -8 3 -5 6 6 6 11 1 17 -2 13 -5z m163 -50 c14 -12 34
-24 45 -27 12 -3 6 -5 -15 -6 -38 -1 -97 39 -85 58 3 6 1 11 -4 11 -6 0 -11 5
-11 12 0 11 12 3 70 -48z m-105 26 c3 -6 -1 -7 -9 -4 -18 7 -21 14 -7 14 6 0
13 -4 16 -10z m328 -17 c-4 -9 -2 -14 3 -10 6 3 11 -3 11 -14 1 -10 0 -19 -2
-19 -9 0 -25 41 -20 50 10 16 15 11 8 -7z m472 -3 c18 -8 17 -9 -7 -9 -16 -1
-28 4 -28 9 0 12 8 12 35 0z m-742 -47 c-4 -9 -11 -5 -24 11 -26 33 -24 41 5
19 13 -10 21 -24 19 -30z m737 12 c0 -8 -9 -15 -20 -15 -22 0 -27 15 -7 23 21
9 27 7 27 -8z m-606 -11 c3 -8 2 -12 -4 -9 -6 3 -10 10 -10 16 0 14 7 11 14
-7z m-14 -25 c0 -5 7 -9 15 -9 20 0 19 -19 -2 -27 -17 -7 -57 32 -48 48 7 10
35 0 35 -12z m-53 -15 c2 -7 0 -21 -6 -31 -10 -17 -10 -17 -11 0 0 9 -4 17 -9
17 -5 0 -11 8 -14 19 -3 14 0 17 15 13 11 -2 22 -11 25 -18z"/>
<path d="M1960 3695 c17 -25 33 -45 36 -45 3 0 -9 20 -26 45 -17 25 -33 45
-36 45 -3 0 9 -20 26 -45z"/>
<path d="M2021 3610 c13 -16 24 -28 27 -26 5 6 -31 55 -41 56 -4 0 2 -13 14
-30z"/>
<path d="M2970 3650 c-6 -11 -8 -20 -6 -20 3 0 10 9 16 20 6 11 8 20 6 20 -3
0 -10 -9 -16 -20z"/>
<path d="M1940 3631 c5 -11 15 -23 21 -27 6 -3 3 5 -6 20 -20 30 -30 35 -15 7z"/>
<path d="M1985 3570 c10 -11 20 -20 23 -20 3 0 -3 9 -13 20 -10 11 -20 20 -23
20 -3 0 3 -9 13 -20z"/>
<path d="M2990 3530 c-17 -22 -29 -40 -27 -40 3 0 20 18 37 40 17 22 29 40 27
40 -3 0 -20 -18 -37 -40z"/>
<path d="M3029 3473 c-13 -16 -12 -17 4 -4 16 13 21 21 13 21 -2 0 -10 -8 -17
-17z"/>
<path d="M3011 3430 c-44 -38 -61 -70 -38 -70 7 0 3 -7 -7 -15 -11 -8 -16 -15
-10 -15 5 0 23 12 39 26 27 23 28 24 5 14 -17 -8 -10 1 20 29 25 22 41 40 36
41 -5 0 -3 7 4 15 24 28 -5 14 -49 -25z m19 -4 c0 -2 -8 -10 -17 -17 -16 -13
-17 -12 -4 4 13 16 21 21 21 13z"/>
<path d="M2959 3413 l-24 -28 28 24 c25 23 32 31 24 31 -2 0 -14 -12 -28 -27z"/>
<path d="M1965 3510 c10 -11 20 -20 23 -20 3 0 -3 9 -13 20 -10 11 -20 20 -23
20 -3 0 3 -9 13 -20z"/>
<path d="M2960 3280 c-9 -6 -10 -10 -3 -10 6 0 15 5 18 10 8 12 4 12 -15 0z"/>
<path d="M2915 3130 c3 -5 11 -10 16 -10 6 0 7 5 4 10 -3 6 -11 10 -16 10 -6
0 -7 -4 -4 -10z"/>
<path d="M2531 3124 c15 -16 25 -21 28 -13 2 7 -4 18 -15 26 -30 22 -39 15
-13 -13z"/>
<path d="M2505 3110 c3 -5 13 -10 21 -10 8 0 12 5 9 10 -3 6 -13 10 -21 10 -8
0 -12 -4 -9 -10z"/>
<path d="M2520 3055 c0 -7 30 -13 34 -7 3 4 -4 9 -15 9 -10 1 -19 0 -19 -2z"/>
<path d="M2508 3033 c6 -2 10 -9 7 -14 -4 -5 1 -6 9 -3 20 8 11 24 -12 23 -11
0 -12 -2 -4 -6z"/>
<path d="M2519 2863 c-13 -16 -12 -17 4 -4 9 7 17 15 17 17 0 8 -8 3 -21 -13z"/>
<path d="M2546 2853 c-6 -14 -5 -15 5 -6 7 7 10 15 7 18 -3 3 -9 -2 -12 -12z"/>
<path d="M2452 2665 c0 -16 2 -22 5 -12 2 9 2 23 0 30 -3 6 -5 -1 -5 -18z"/>
<path d="M2521 2514 c0 -11 3 -14 6 -6 3 7 2 16 -1 19 -3 4 -6 -2 -5 -13z"/>
<path d="M2650 2804 c0 -6 13 -23 30 -39 24 -23 27 -32 19 -47 -6 -10 -8 -27
-6 -36 4 -13 5 -11 6 5 0 12 7 28 15 36 13 12 9 19 -25 53 -21 21 -39 33 -39
28z"/>
<path d="M2870 2413 c-6 -32 -14 -66 -16 -75 -5 -18 -5 -18 84 -37 43 -9 44
-9 57 22 7 18 16 50 19 72 l5 40 -15 -47 c-17 -53 -37 -66 -28 -18 6 25 3 31
-20 40 -32 12 -57 13 -54 3 1 -5 -4 -21 -10 -36 -15 -35 -15 -40 -2 -32 6 3
10 15 10 26 0 13 4 18 12 13 7 -5 8 -3 3 5 -5 9 1 12 21 9 36 -4 46 -37 15
-45 -12 -3 -21 -9 -21 -14 0 -5 6 -6 13 -4 15 6 44 -11 35 -20 -8 -8 -78 2
-96 14 -11 7 -11 20 -2 69 12 61 13 61 44 57 28 -4 29 -4 6 4 -44 16 -48 12
-60 -46z"/>
<path d="M2735 2450 c-3 -6 -10 -8 -15 -5 -4 2 -10 -6 -12 -20 -3 -13 -2 -22
3 -20 4 3 10 1 14 -5 10 -16 25 -12 25 8 0 13 -2 14 -9 3 -6 -9 -11 -10 -15
-2 -9 14 18 25 40 17 22 -9 13 -40 -14 -44 -12 -2 -20 -7 -17 -12 6 -10 34 -2
51 15 8 8 9 17 2 28 -5 10 -6 22 -2 29 4 7 3 8 -5 4 -6 -4 -18 -3 -26 4 -9 8
-15 8 -20 0z"/>
<path d="M2968 2443 c7 -3 16 -2 19 1 4 3 -2 6 -13 5 -11 0 -14 -3 -6 -6z"/>
<path d="M2831 2223 c-5 -21 -12 -54 -16 -73 -4 -19 -9 -43 -11 -52 -3 -10 -1
-18 5 -18 6 0 11 7 11 16 0 9 12 25 26 36 17 14 22 23 15 28 -15 9 -3 40 15
40 24 0 8 -52 -23 -77 -15 -13 -22 -23 -16 -23 17 0 125 132 116 141 -5 3 -31
9 -60 13 l-52 7 -10 -38z m102 11 c9 -9 -11 -44 -24 -44 -6 0 -9 7 -5 15 4 11
-2 15 -24 15 -17 0 -30 5 -30 10 0 11 73 14 83 4z"/>
<path d="M2542 1320 c0 -22 5 -40 10 -40 5 0 6 5 3 11 -4 6 1 16 11 24 15 11
16 15 5 29 -21 26 -30 19 -29 -24z m28 10 c0 -5 -2 -10 -4 -10 -3 0 -8 5 -11
10 -3 6 -1 10 4 10 6 0 11 -4 11 -10z"/>
<path d="M2580 1191 c0 -5 5 -13 10 -16 6 -3 10 -2 10 4 0 5 -4 13 -10 16 -5
3 -10 2 -10 -4z"/>
<path d="M2626 1182 c-3 -5 1 -9 9 -9 8 0 12 4 9 9 -3 4 -7 8 -9 8 -2 0 -6 -4
-9 -8z"/>
<path d="M2414 1885 c0 -49 1 -71 3 -48 2 23 2 64 0 90 -2 26 -3 8 -3 -42z"/>
<path d="M2309 1323 c-13 -16 -12 -17 4 -4 9 7 17 15 17 17 0 8 -8 3 -21 -13z"/>
<path d="M1335 3789 c-11 -16 -1 -19 13 -3 7 8 8 14 3 14 -5 0 -13 -5 -16 -11z"/>
<path d="M1234 3699 c-3 -6 -1 -15 5 -20 6 -5 9 -6 6 -3 -3 4 0 13 6 21 8 9 8
13 1 13 -6 0 -14 -5 -18 -11z"/>
<path d="M1174 3625 c-10 -8 -14 -14 -9 -14 6 0 19 6 29 14 11 8 15 15 10 15
-6 0 -19 -7 -30 -15z"/>
<path d="M1116 3562 c-2 -4 4 -9 15 -9 10 -1 19 2 19 8 0 11 -27 12 -34 1z"/>
<path d="M1085 3520 c-3 -5 -1 -10 4 -10 6 0 11 5 11 10 0 6 -2 10 -4 10 -3 0
-8 -4 -11 -10z"/>
<path d="M1055 3479 c-4 -6 -4 -13 -1 -16 8 -8 36 5 36 17 0 13 -27 13 -35 -1z"/>
<path d="M1020 3426 c0 -2 7 -6 15 -10 8 -3 15 -1 15 4 0 6 -7 10 -15 10 -8 0
-15 -2 -15 -4z"/>
<path d="M1005 3390 c3 -5 10 -10 16 -10 5 0 9 5 9 10 0 6 -7 10 -16 10 -8 0
-12 -4 -9 -10z"/>
<path d="M2470 3350 c-41 -7 -84 -29 -76 -37 3 -4 -1 -15 -11 -25 -21 -24 -16
-23 40 6 49 24 141 34 152 16 3 -6 13 -10 21 -10 9 0 12 5 8 11 -4 8 0 8 15 0
24 -13 28 -23 6 -15 -21 8 -19 -2 5 -26 12 -12 25 -18 30 -15 6 3 7 -1 4 -9
-3 -9 -3 -24 0 -33 6 -15 8 -15 16 -3 9 14 6 -27 -5 -83 -2 -9 1 -15 6 -11 5
3 9 -2 9 -11 0 -9 -4 -14 -9 -10 -5 3 -12 -4 -16 -15 -9 -27 -74 -90 -94 -91
-10 0 -12 -2 -3 -6 6 -2 9 -9 6 -15 -3 -5 7 -3 24 6 41 21 83 73 75 93 -4 10
-2 14 4 10 13 -8 33 44 33 85 0 67 -64 159 -124 177 -53 16 -80 18 -116 11z
m17 -16 c-3 -3 -12 -4 -19 -1 -8 3 -5 6 6 6 11 1 17 -2 13 -5z m93 -4 c11 -7
5 -8 -20 -4 -43 8 -51 14 -19 14 13 0 31 -5 39 -10z m117 -197 c-3 -10 -5 -2
-5 17 0 19 2 27 5 18 2 -10 2 -26 0 -35z m-36 -91 c-5 -10 -18 -25 -27 -33
-11 -9 -9 -2 6 19 26 35 36 42 21 14z"/>
<path d="M2340 3268 c-17 -23 -28 -48 -25 -56 3 -7 5 -26 6 -40 0 -15 3 -20 6
-12 2 8 7 22 10 30 3 8 7 21 9 29 1 8 8 17 15 21 6 4 9 14 7 21 -3 8 1 22 10
32 9 10 11 17 4 17 -7 0 -26 -19 -42 -42z m2 -27 c-9 -16 -18 -28 -21 -26 -4
5 27 55 34 55 2 0 -4 -13 -13 -29z"/>
<path d="M2467 3201 c-38 -25 -42 -31 -19 -24 12 3 28 14 38 24 21 23 17 23
-19 0z"/>
<path d="M890 3174 c0 -8 5 -12 10 -9 6 3 10 10 10 16 0 5 -4 9 -10 9 -5 0
-10 -7 -10 -16z"/>
<path d="M2321 3120 c0 -14 4 -32 9 -40 9 -13 10 -13 9 0 -1 8 -5 26 -9 40
l-8 25 -1 -25z"/>
<path d="M875 3099 c-4 -6 -5 -12 -2 -15 2 -3 7 2 10 11 7 17 1 20 -8 4z"/>
<path d="M2985 3015 c11 -9 20 -23 20 -32 0 -9 6 -18 13 -21 6 -2 12 3 12 11
0 14 -23 38 -50 51 -8 4 -6 0 5 -9z"/>
<path d="M3895 1530 c-3 -6 1 -7 9 -4 18 7 21 14 7 14 -6 0 -13 -4 -16 -10z"/>
<path d="M381 631 c-2 -55 -35 -97 -94 -120 -49 -19 -50 -20 -19 -20 48 -1
100 -53 111 -111 6 -32 9 -37 10 -17 2 61 45 112 106 125 l39 8 -40 12 c-53
16 -92 58 -103 113 -8 41 -9 42 -10 10z"/>
<path d="M4611 624 c-1 -48 -39 -95 -91 -113 -32 -11 -39 -16 -25 -19 68 -12
114 -59 116 -118 0 -25 3 -22 17 20 19 54 51 84 103 95 l34 8 -41 11 c-50 15
-81 47 -99 103 -13 41 -14 42 -14 13z"/>
</g>
</svg>
